<svg xmlns="http://www.w3.org/2000/svg" xmlns:xlink="http://www.w3.org/1999/xlink" width="500" zoomAndPan="magnify" viewBox="0 0 375 374.999991" height="500" preserveAspectRatio="xMidYMid meet" version="1.0"><path fill="#feed01" d="M 12.761719 300.082031 C 23.074219 325.109375 47.214844 336.933594 62.644531 344.488281 C 78.035156 352.027344 95.449219 357.425781 113.953125 360.40625 C 131.59375 363.25 150.867188 356.789062 169.683594 354.988281 C 193.03125 352.75 216.019531 353.855469 238.402344 343.625 C 253.859375 336.558594 268.722656 327.476562 282.480469 316.21875 C 298.0625 303.472656 374.863281 236.6875 357.078125 146.355469 C 341.351562 66.5 261.9375 20.234375 195.03125 14.132812 C 139.601562 9.078125 67.1875 29.296875 41.5625 78.042969 C 25.445312 108.695312 44.765625 118.40625 31.550781 187.839844 C 20.109375 247.9375 0.148438 269.464844 12.761719 300.082031 " fill-opacity="1" fill-rule="nonzero"/><path fill="#000000" d="M 239.394531 343.328125 C 236.28125 319.992188 233.921875 304.878906 233.921875 304.878906 L 135.363281 287.761719 L 125.527344 315.667969 C 122.582031 324.121094 118.550781 336.617188 114.789062 351.992188 C 114.234375 354.261719 113.527344 357.226562 112.878906 360.242188 C 152.992188 366.792969 198.453125 362.355469 239.394531 343.328125 " fill-opacity="1" fill-rule="nonzero"/><path fill="#000000" d="M 115.039062 313.457031 C 112.859375 320.914062 109.441406 331.226562 113.226562 336.175781 C 120.105469 345.175781 125.808594 343.730469 134.296875 340.636719 C 151.273438 334.449219 178.363281 324.671875 186.273438 330.105469 L 186.625 313.457031 L 115.039062 313.457031 " fill-opacity="1" fill-rule="nonzero"/><path fill="#000000" d="M 212.390625 153.816406 C 226.492188 153.753906 239.371094 161.726562 245.542969 174.320312 C 252.6875 188.910156 262.773438 227.097656 263.167969 243.773438 C 263.855469 272.925781 238.320312 274.566406 237.5625 274.609375 C 237.554688 274.609375 237.546875 274.617188 237.546875 274.625 C 237.625 275.46875 240.613281 307.144531 240.847656 312.765625 C 241.277344 323.050781 222.203125 339.097656 200.296875 331.191406 C 178.5 323.328125 118.949219 307.65625 112.902344 320.996094 C 112.894531 321.019531 112.867188 321.007812 112.871094 320.988281 L 137.855469 228.3125 C 137.859375 228.300781 137.847656 228.289062 137.835938 228.289062 L 117.332031 229.28125 C 117.328125 229.28125 117.324219 229.28125 117.320312 229.277344 L 100.621094 219.621094 C 100.613281 219.617188 100.609375 219.609375 100.613281 219.601562 L 104.839844 200.867188 C 112.875 168.863281 134.371094 154.179688 162.109375 154.050781 L 212.390625 153.816406 " fill-opacity="1" fill-rule="nonzero"/><path fill="#ffffff" d="M 146.628906 225.3125 C 142.796875 224.605469 143.84375 220.164062 130.378906 219.359375 C 91.515625 217.042969 110.347656 197.3125 132.613281 201.070312 C 139.988281 202.316406 142.890625 207.089844 145.667969 208.300781 C 168.960938 218.464844 154.269531 226.726562 146.628906 225.3125 " fill-opacity="1" fill-rule="nonzero"/><path fill="#000000" d="M 146.746094 224.691406 C 150.644531 225.410156 156.488281 223.417969 157.488281 220.148438 C 158.09375 218.171875 157.328125 214.082031 145.414062 208.882812 C 144.4375 208.457031 143.492188 207.664062 142.394531 206.746094 C 140.140625 204.859375 137.339844 202.511719 132.507812 201.695312 C 122.289062 199.972656 112.867188 203.265625 109.65625 207.441406 C 108.875 208.460938 108.109375 210.03125 108.886719 211.734375 C 109.691406 213.5 113.402344 217.710938 130.414062 218.726562 C 139.667969 219.277344 142.257812 221.535156 144.15625 223.183594 C 145.027344 223.941406 145.652344 224.488281 146.746094 224.691406 Z M 148.507812 226.109375 C 147.816406 226.109375 147.148438 226.054688 146.515625 225.9375 C 145.082031 225.671875 144.230469 224.929688 143.324219 224.140625 C 141.566406 222.613281 139.15625 220.519531 130.339844 219.992188 C 117.691406 219.238281 109.664062 216.492188 107.730469 212.261719 C 106.910156 210.457031 107.226562 208.523438 108.652344 206.667969 C 112.089844 202.191406 122.03125 198.640625 132.71875 200.445312 C 137.890625 201.316406 140.964844 203.894531 143.207031 205.773438 C 144.230469 206.628906 145.113281 207.367188 145.921875 207.71875 C 158.097656 213.03125 159.589844 217.613281 158.699219 220.519531 C 157.640625 223.980469 152.730469 226.109375 148.507812 226.109375 " fill-opacity="1" fill-rule="nonzero"/><path fill="#ffffff" d="M 195.554688 159.269531 C 196.851562 158.164062 196.164062 156.042969 194.46875 155.839844 L 191.832031 155.523438 C 189 155.179688 186.640625 153.296875 185.71875 150.695312 L 181.378906 118.636719 L 172.476562 121.820312 L 160.699219 115.996094 L 161.75 150.25 C 161.664062 153.234375 159.71875 155.875 156.835938 156.90625 L 153.394531 158.132812 C 151.582031 158.78125 151.5 161.238281 153.253906 162.003906 C 160.265625 165.058594 188.761719 165.085938 195.554688 159.269531 " fill-opacity="1" fill-rule="nonzero"/><path fill="#000000" d="M 161.363281 117.035156 L 162.382812 150.230469 C 162.289062 153.539062 160.195312 156.375 157.050781 157.503906 L 153.609375 158.734375 C 152.902344 158.984375 152.636719 159.582031 152.617188 160.054688 C 152.601562 160.523438 152.828125 161.128906 153.507812 161.425781 C 156.871094 162.890625 165.488281 163.675781 174.460938 163.332031 C 184.539062 162.945312 192.269531 161.246094 195.140625 158.789062 C 195.542969 158.449219 195.691406 157.941406 195.535156 157.429688 C 195.410156 157.015625 195.042969 156.550781 194.390625 156.472656 L 191.757812 156.152344 C 188.675781 155.78125 186.132812 153.769531 185.121094 150.90625 C 185.105469 150.867188 185.09375 150.824219 185.089844 150.78125 L 180.855469 119.5 L 172.691406 122.417969 C 172.527344 122.476562 172.347656 122.46875 172.195312 122.390625 Z M 170.34375 164.679688 C 162.777344 164.679688 155.980469 163.886719 153 162.585938 C 151.949219 162.128906 151.3125 161.136719 151.351562 160.011719 C 151.390625 158.875 152.09375 157.929688 153.179688 157.539062 L 156.625 156.308594 C 159.273438 155.359375 161.039062 152.976562 161.117188 150.234375 L 160.0625 116.015625 C 160.054688 115.792969 160.164062 115.582031 160.351562 115.464844 C 160.539062 115.34375 160.777344 115.332031 160.976562 115.429688 L 172.515625 121.132812 L 181.164062 118.042969 C 181.34375 117.976562 181.542969 117.996094 181.707031 118.097656 C 181.871094 118.195312 181.980469 118.363281 182.007812 118.554688 L 186.339844 150.542969 C 187.203125 152.917969 189.332031 154.585938 191.90625 154.894531 L 194.542969 155.210938 C 195.597656 155.335938 196.441406 156.046875 196.746094 157.0625 C 197.046875 158.054688 196.746094 159.082031 195.964844 159.753906 C 191.523438 163.554688 179.480469 164.410156 174.507812 164.597656 C 173.109375 164.652344 171.710938 164.679688 170.34375 164.679688 " fill-opacity="1" fill-rule="nonzero"/><path fill="#ffffff" d="M 185.324219 93.148438 C 200.5 98.730469 197.890625 108.550781 197.890625 108.550781 C 197.699219 111.25 197.589844 116.195312 198.09375 117.988281 C 198.507812 119.464844 200.933594 122.246094 201.050781 123.070312 C 201.164062 123.890625 199.851562 125.578125 197.226562 126.175781 C 197.226562 126.175781 196.230469 139.292969 192.789062 141.445312 C 189.351562 143.59375 176.109375 139.46875 176.109375 139.46875 L 173.878906 138.574219 C 166.703125 135.699219 162.316406 129.714844 160.226562 122.308594 C 160.226562 122.308594 150.566406 80.347656 185.324219 93.148438 " fill-opacity="1" fill-rule="nonzero"/><path fill="#000000" d="M 176.320312 138.871094 C 179.945312 139.996094 189.839844 142.542969 192.453125 140.90625 C 195.050781 139.285156 196.320312 129.6875 196.59375 126.128906 C 196.613281 125.851562 196.8125 125.621094 197.082031 125.558594 C 199.535156 125 200.472656 123.527344 200.421875 123.160156 C 200.371094 122.902344 199.753906 122 199.304688 121.347656 C 198.53125 120.21875 197.734375 119.054688 197.484375 118.160156 C 196.886719 116.042969 197.117188 110.472656 197.253906 108.507812 C 197.257812 108.464844 197.265625 108.425781 197.273438 108.386719 C 197.371094 108.011719 199.507812 99.046875 185.109375 93.742188 C 175.980469 90.382812 169.203125 90.570312 164.964844 94.304688 C 156.3125 101.925781 160.796875 121.964844 160.84375 122.167969 C 163.023438 129.902344 167.617188 135.382812 174.113281 137.988281 Z M 189.542969 142.695312 C 184.515625 142.695312 176.984375 140.40625 175.914062 140.078125 C 175.902344 140.070312 175.886719 140.0625 175.871094 140.058594 L 173.640625 139.164062 C 166.765625 136.410156 161.917969 130.636719 159.617188 122.480469 C 159.414062 121.597656 154.90625 101.476562 164.125 93.355469 C 168.738281 89.289062 175.945312 89.019531 185.542969 92.554688 C 200.398438 98.023438 198.714844 107.714844 198.519531 108.644531 C 198.320312 111.492188 198.246094 116.191406 198.703125 117.816406 C 198.898438 118.507812 199.703125 119.683594 200.351562 120.632812 C 201.148438 121.792969 201.605469 122.476562 201.675781 122.980469 C 201.847656 124.207031 200.320312 125.957031 197.820312 126.679688 C 197.59375 129.285156 196.472656 139.890625 193.125 141.984375 C 192.308594 142.496094 191.035156 142.695312 189.542969 142.695312 " fill-opacity="1" fill-rule="nonzero"/><path fill="#000000" d="M 180.332031 86.042969 C 184.320312 87.015625 188.21875 89.507812 190.277344 89.726562 C 193.601562 90.082031 196 85.816406 200.199219 87.367188 C 203.890625 88.726562 205.964844 91.867188 206.488281 95.410156 C 206.578125 96 206.601562 96.625 206.546875 97.289062 C 205.765625 106.242188 200.160156 108.144531 197.890625 108.550781 C 197.890625 108.550781 184.714844 107.332031 182.148438 107.953125 C 179.746094 108.539062 176.03125 112.277344 174.910156 117.59375 C 174.765625 118.277344 174.164062 118.78125 173.464844 118.832031 C 172.640625 118.894531 171.894531 118.328125 171.757812 117.519531 C 171.316406 114.964844 170.113281 109.863281 167.519531 109.710938 C 164.496094 109.539062 160.648438 115.511719 164.597656 119.257812 C 165.816406 120.410156 165.414062 122.511719 163.855469 123.136719 C 162.558594 123.660156 160.941406 123.691406 159.1875 122.269531 C 159.1875 122.269531 151.386719 108.597656 155.109375 97.058594 C 158.828125 85.523438 175.027344 84.75 180.332031 86.042969 " fill-opacity="1" fill-rule="nonzero"/><path fill="#000000" d="M 201.511719 122.722656 C 201.339844 122.722656 201.171875 122.65625 201.046875 122.519531 C 200.808594 122.261719 200.824219 121.863281 201.082031 121.625 C 202.011719 120.761719 202.683594 118.828125 202.792969 116.699219 C 202.871094 115.167969 202.664062 113.730469 202.203125 112.636719 C 201.8125 111.710938 201.285156 111.164062 200.761719 111.136719 C 200.746094 111.136719 200.730469 111.136719 200.71875 111.136719 C 199.773438 111.136719 198.761719 112.738281 198.351562 114.894531 C 198.285156 115.238281 197.953125 115.460938 197.609375 115.398438 C 197.265625 115.332031 197.039062 115 197.105469 114.65625 C 197.667969 111.710938 199.160156 109.792969 200.824219 109.871094 C 201.867188 109.925781 202.773438 110.734375 203.371094 112.144531 C 203.90625 113.40625 204.148438 115.046875 204.0625 116.765625 C 203.933594 119.242188 203.121094 121.460938 201.941406 122.554688 C 201.820312 122.667969 201.664062 122.722656 201.511719 122.722656 " fill-opacity="1" fill-rule="nonzero"/><path fill="#000000" d="M 191.566406 110.949219 C 189.816406 110.949219 188.234375 113.441406 188.078125 116.46875 C 187.996094 118.042969 188.292969 119.527344 188.914062 120.660156 C 189.484375 121.691406 190.25 122.28125 191.070312 122.324219 C 192.855469 122.410156 194.492188 119.886719 194.652344 116.808594 C 194.734375 115.234375 194.433594 113.75 193.8125 112.617188 C 193.242188 111.585938 192.480469 110.996094 191.660156 110.953125 C 191.628906 110.953125 191.597656 110.949219 191.566406 110.949219 Z M 191.167969 123.59375 C 191.113281 123.59375 191.058594 123.59375 191.007812 123.59375 C 189.730469 123.523438 188.59375 122.703125 187.804688 121.273438 C 187.070312 119.9375 186.714844 118.210938 186.808594 116.40625 C 187.011719 112.507812 189.171875 109.546875 191.722656 109.6875 C 193 109.753906 194.132812 110.574219 194.921875 112.007812 C 195.660156 113.339844 196.011719 115.066406 195.917969 116.871094 C 195.71875 120.6875 193.648438 123.59375 191.167969 123.59375 " fill-opacity="1" fill-rule="nonzero"/><path fill="#000000" d="M 187.910156 114.289062 C 187.894531 114.289062 187.875 114.289062 187.855469 114.285156 L 173.378906 112.992188 C 173.03125 112.960938 172.773438 112.652344 172.804688 112.304688 C 172.835938 111.953125 173.148438 111.695312 173.496094 111.726562 L 187.96875 113.023438 C 188.316406 113.054688 188.574219 113.363281 188.542969 113.710938 C 188.515625 114.042969 188.234375 114.289062 187.910156 114.289062 " fill-opacity="1" fill-rule="nonzero"/><path fill="#000000" d="M 195.042969 66.109375 L 201.632812 82.9375 C 204.292969 89.847656 194.96875 99.816406 180.800781 105.203125 C 166.628906 110.59375 152.988281 109.359375 150.324219 102.453125 L 143.734375 85.625 L 195.042969 66.109375 " fill-opacity="1" fill-rule="nonzero"/><path fill="#000000" d="M 144.558594 85.988281 L 150.914062 102.222656 C 153.449219 108.796875 166.753906 109.867188 180.574219 104.613281 C 190.160156 100.964844 198.011719 94.894531 200.578125 89.148438 C 201.5625 86.9375 201.71875 84.925781 201.042969 83.167969 L 194.679688 66.925781 Z M 164.042969 109.195312 C 163.066406 109.195312 162.113281 109.15625 161.191406 109.070312 C 155.179688 108.53125 151.113281 106.261719 149.730469 102.679688 L 143.144531 85.855469 C 143.082031 85.695312 143.082031 85.519531 143.152344 85.367188 C 143.222656 85.210938 143.351562 85.089844 143.507812 85.03125 L 194.816406 65.515625 C 195.140625 65.394531 195.503906 65.554688 195.632812 65.878906 L 202.222656 82.707031 C 203.027344 84.796875 202.863281 87.136719 201.734375 89.664062 C 199 95.796875 191.0625 101.980469 181.023438 105.796875 C 175.179688 108.019531 169.261719 109.195312 164.042969 109.195312 " fill-opacity="1" fill-rule="nonzero"/><path fill="#ed1b2f" d="M 140.328125 81.042969 L 162.339844 59.863281 C 162.769531 59.5 163.308594 59.292969 163.875 59.28125 L 194.496094 60.441406 L 204.976562 56.457031 L 206.925781 61.515625 C 207.046875 61.832031 206.988281 62.214844 206.683594 62.480469 L 175.417969 89.226562 C 174.992188 89.597656 174.449219 89.800781 173.882812 89.8125 L 132.632812 90.644531 C 132.226562 90.652344 131.925781 90.402344 131.804688 90.085938 L 129.851562 85.027344 L 140.328125 81.042969 " fill-opacity="1" fill-rule="nonzero"/><path fill="#000000" d="M 140.328125 81.046875 L 140.332031 81.046875 Z M 130.671875 85.394531 L 132.394531 89.859375 C 132.417969 89.917969 132.472656 90.011719 132.613281 90.011719 C 132.613281 90.011719 132.617188 90.011719 132.617188 90.011719 L 173.871094 89.179688 C 174.289062 89.167969 174.691406 89.019531 175.007812 88.75 L 206.269531 62 C 206.375 61.910156 206.355469 61.800781 206.332031 61.746094 L 204.609375 57.273438 L 194.722656 61.035156 C 194.644531 61.066406 194.554688 61.082031 194.472656 61.074219 L 163.847656 59.914062 C 163.472656 59.925781 163.066406 60.078125 162.753906 60.347656 L 140.769531 81.5 C 140.707031 81.5625 140.632812 81.605469 140.554688 81.636719 Z M 132.613281 91.277344 C 131.984375 91.277344 131.4375 90.902344 131.210938 90.316406 L 129.261719 85.257812 C 129.199219 85.097656 129.203125 84.921875 129.273438 84.769531 C 129.34375 84.617188 129.46875 84.496094 129.628906 84.4375 L 139.984375 80.5 L 161.902344 59.410156 C 162.464844 58.925781 163.152344 58.660156 163.859375 58.648438 L 194.394531 59.804688 L 204.75 55.867188 C 205.074219 55.742188 205.441406 55.90625 205.5625 56.230469 L 207.515625 61.289062 C 207.746094 61.890625 207.582031 62.546875 207.09375 62.960938 L 175.832031 89.710938 C 175.292969 90.171875 174.605469 90.433594 173.898438 90.445312 L 132.644531 91.277344 C 132.632812 91.277344 132.625 91.277344 132.613281 91.277344 " fill-opacity="1" fill-rule="nonzero"/><path fill="#000000" d="M 130.09375 84.066406 L 161.355469 57.316406 C 161.785156 56.949219 162.324219 56.746094 162.890625 56.734375 L 204.144531 55.902344 C 204.957031 55.886719 205.347656 56.898438 204.730469 57.425781 L 173.46875 84.171875 C 173.042969 84.539062 172.5 84.746094 171.933594 84.757812 L 130.679688 85.585938 C 129.867188 85.605469 129.476562 84.59375 130.09375 84.066406 " fill-opacity="1" fill-rule="nonzero"/><path fill="#000000" d="M 130.507812 84.546875 C 130.40625 84.632812 130.417969 84.730469 130.445312 84.800781 C 130.464844 84.859375 130.515625 84.964844 130.667969 84.953125 L 171.921875 84.121094 C 172.339844 84.113281 172.738281 83.960938 173.058594 83.691406 L 204.320312 56.941406 C 204.417969 56.855469 204.40625 56.757812 204.378906 56.6875 C 204.359375 56.628906 204.308594 56.53125 204.15625 56.535156 L 162.902344 57.367188 C 162.488281 57.375 162.085938 57.527344 161.769531 57.796875 Z M 130.664062 86.222656 C 130.03125 86.222656 129.484375 85.84375 129.257812 85.253906 C 129.03125 84.652344 129.195312 84 129.683594 83.582031 L 160.945312 56.832031 C 161.480469 56.375 162.167969 56.113281 162.878906 56.101562 L 204.128906 55.265625 C 204.777344 55.269531 205.339844 55.632812 205.566406 56.238281 C 205.792969 56.832031 205.628906 57.488281 205.144531 57.90625 L 173.878906 84.65625 C 173.34375 85.113281 172.65625 85.375 171.949219 85.390625 L 130.695312 86.222656 C 130.683594 86.222656 130.671875 86.222656 130.664062 86.222656 " fill-opacity="1" fill-rule="nonzero"/><path fill="#ed1b2f" d="M 149.378906 100.292969 C 150.148438 100.273438 150.800781 100.855469 150.875 101.621094 L 152.929688 123.253906 L 147.03125 123.40625 L 147.957031 101.699219 C 147.988281 100.925781 148.613281 100.3125 149.378906 100.292969 " fill-opacity="1" fill-rule="nonzero"/><path fill="#000000" d="M 149.417969 100.925781 C 149.410156 100.925781 149.40625 100.925781 149.398438 100.925781 C 148.964844 100.9375 148.609375 101.289062 148.59375 101.722656 L 147.695312 122.753906 L 152.234375 122.636719 L 150.246094 101.679688 C 150.203125 101.253906 149.84375 100.925781 149.417969 100.925781 Z M 147.03125 124.039062 C 146.863281 124.039062 146.699219 123.972656 146.578125 123.851562 C 146.457031 123.722656 146.390625 123.554688 146.398438 123.378906 L 147.324219 101.667969 C 147.371094 100.570312 148.269531 99.6875 149.363281 99.65625 C 149.382812 99.65625 149.398438 99.65625 149.417969 99.65625 C 150.492188 99.65625 151.402344 100.484375 151.503906 101.558594 L 153.5625 123.195312 C 153.578125 123.367188 153.523438 123.542969 153.402344 123.675781 C 153.285156 123.804688 153.121094 123.882812 152.945312 123.886719 L 147.050781 124.039062 C 147.042969 124.039062 147.039062 124.039062 147.03125 124.039062 " fill-opacity="1" fill-rule="nonzero"/><path fill="#000000" d="M 149.648438 100.738281 C 149.300781 100.738281 149.019531 100.460938 149.011719 100.113281 L 148.792969 85.316406 C 148.789062 85.132812 148.867188 84.953125 149.007812 84.832031 L 166.632812 69.332031 C 166.894531 69.101562 167.296875 69.125 167.527344 69.390625 C 167.757812 69.652344 167.734375 70.054688 167.472656 70.285156 L 150.066406 85.59375 L 150.28125 100.097656 C 150.285156 100.449219 150.003906 100.734375 149.65625 100.738281 C 149.652344 100.738281 149.648438 100.738281 149.648438 100.738281 " fill-opacity="1" fill-rule="nonzero"/><path fill="#ffffff" d="M 164.839844 176.949219 C 164.839844 176.949219 170.472656 185.792969 175.550781 184.230469 C 178.21875 183.410156 180.820312 174.691406 181.882812 174.382812 C 185.289062 173.390625 191.769531 171.773438 195.746094 164.664062 C 199.464844 158.023438 198.65625 154.476562 197.699219 152.847656 C 197.253906 152.097656 197.261719 151.164062 197.75 150.441406 C 198.460938 149.394531 199.148438 147.808594 198.433594 146.171875 C 198.183594 145.597656 198.207031 144.941406 198.453125 144.367188 C 199.398438 142.167969 201.144531 137.109375 197.746094 136.109375 C 196.824219 135.839844 195.832031 136.1875 195.269531 136.957031 C 194.191406 138.445312 191.9375 141.25 189.152344 143.023438 C 185.214844 145.53125 182.855469 147.242188 180.875 148.371094 C 179.179688 149.335938 178.285156 140.878906 174.214844 137.699219 C 170.597656 134.878906 169.367188 136.304688 169.003906 137.628906 C 168.644531 138.957031 170.882812 139.484375 172.15625 145.789062 C 173.652344 153.167969 172.089844 159.375 171.636719 162.699219 C 171.105469 166.59375 164.839844 176.949219 164.839844 176.949219 " fill-opacity="1" fill-rule="nonzero"/><path fill="#000000" d="M 165.585938 176.933594 C 166.640625 178.460938 171.324219 184.863281 175.363281 183.625 C 176.726562 183.207031 178.371094 179.664062 179.460938 177.320312 C 180.570312 174.9375 181.042969 173.964844 181.707031 173.773438 L 182.136719 173.648438 C 185.640625 172.640625 191.503906 170.949219 195.195312 164.351562 C 198.816406 157.886719 197.972656 154.570312 197.152344 153.167969 C 196.574219 152.1875 196.601562 151.007812 197.226562 150.085938 C 197.84375 149.175781 198.453125 147.800781 197.851562 146.425781 C 197.539062 145.714844 197.546875 144.871094 197.871094 144.117188 C 199.070312 141.320312 199.425781 139.003906 198.839844 137.761719 C 198.59375 137.238281 198.179688 136.898438 197.566406 136.71875 C 196.90625 136.527344 196.1875 136.773438 195.78125 137.332031 C 194.664062 138.871094 192.359375 141.734375 189.492188 143.558594 C 187.78125 144.648438 186.382812 145.578125 185.148438 146.394531 C 183.570312 147.445312 182.324219 148.273438 181.191406 148.921875 C 180.882812 149.09375 180.554688 149.128906 180.238281 149.015625 C 179.371094 148.710938 178.847656 147.378906 178.058594 145.363281 C 177.140625 143.019531 175.878906 139.804688 173.820312 138.199219 C 171.808594 136.628906 170.820312 136.625 170.40625 136.761719 C 169.945312 136.914062 169.722656 137.410156 169.617188 137.796875 C 169.554688 138.027344 169.683594 138.25 170.105469 138.886719 C 170.808594 139.949219 171.984375 141.730469 172.777344 145.660156 C 174.054688 151.960938 173.152344 157.386719 172.550781 160.972656 C 172.441406 161.644531 172.339844 162.25 172.265625 162.785156 C 171.773438 166.398438 166.703125 175.058594 165.585938 176.933594 Z M 174.308594 185.046875 C 169.3125 185.046875 164.519531 177.636719 164.300781 177.292969 C 164.171875 177.085938 164.171875 176.828125 164.296875 176.621094 C 164.355469 176.519531 170.503906 166.332031 171.007812 162.613281 C 171.082031 162.070312 171.1875 161.449219 171.300781 160.761719 C 171.882812 157.269531 172.765625 151.984375 171.535156 145.914062 C 170.789062 142.222656 169.699219 140.574219 169.046875 139.585938 C 168.558594 138.847656 168.175781 138.265625 168.394531 137.464844 C 168.65625 136.496094 169.230469 135.816406 170.007812 135.558594 C 171.183594 135.164062 172.683594 135.703125 174.605469 137.199219 C 176.933594 139.019531 178.265625 142.417969 179.242188 144.902344 C 179.671875 146.007812 180.257812 147.503906 180.613281 147.789062 C 181.699219 147.167969 182.914062 146.359375 184.449219 145.339844 C 185.683594 144.519531 187.085938 143.585938 188.8125 142.488281 C 191.503906 140.777344 193.691406 138.054688 194.753906 136.585938 C 195.476562 135.59375 196.75 135.15625 197.925781 135.503906 C 198.890625 135.785156 199.582031 136.363281 199.988281 137.222656 C 201 139.371094 199.824219 142.777344 199.035156 144.617188 C 198.847656 145.050781 198.839844 145.523438 199.015625 145.917969 C 199.675781 147.421875 199.421875 149.109375 198.277344 150.800781 C 197.929688 151.308594 197.917969 151.972656 198.242188 152.527344 C 199.417969 154.523438 200.035156 158.304688 196.300781 164.972656 C 192.355469 172.023438 185.9375 173.871094 182.488281 174.867188 L 182.125 174.972656 C 181.820312 175.257812 181.152344 176.695312 180.609375 177.855469 C 178.925781 181.480469 177.5 184.296875 175.738281 184.835938 C 175.261719 184.984375 174.785156 185.046875 174.308594 185.046875 " fill-opacity="1" fill-rule="nonzero"/><path fill="#000000" d="M 183.410156 180.863281 L 166.339844 169.988281 C 166.339844 169.988281 143.265625 207.296875 125.792969 219.957031 C 117.285156 226.125 100.78125 218.875 100.78125 218.875 C 100.78125 218.875 84.933594 279.769531 115.519531 288.472656 C 166.464844 302.972656 183.410156 180.863281 183.410156 180.863281 " fill-opacity="1" fill-rule="nonzero"/><path fill="#feed01" d="M 234.75 275.976562 C 226.242188 275.976562 215.667969 273.027344 203.246094 267.191406 C 188.382812 260.207031 175.617188 251.308594 169.332031 246.628906 C 169.050781 246.417969 168.992188 246.019531 169.203125 245.738281 C 169.410156 245.457031 169.808594 245.398438 170.089844 245.609375 C 189.71875 260.230469 219.332031 276.578125 238.191406 274.527344 C 238.539062 274.488281 238.851562 274.742188 238.890625 275.089844 C 238.929688 275.4375 238.675781 275.75 238.328125 275.789062 C 237.179688 275.910156 235.984375 275.976562 234.75 275.976562 " fill-opacity="1" fill-rule="nonzero"/><path fill="#feed01" d="M 208.902344 229.054688 C 198.265625 229.054688 178.625 219.859375 177.710938 219.429688 C 177.394531 219.28125 177.261719 218.902344 177.40625 218.585938 C 177.558594 218.269531 177.9375 218.132812 178.253906 218.285156 C 178.496094 218.398438 202.632812 229.703125 211.566406 227.511719 C 226.613281 223.828125 223.042969 204.566406 223.003906 204.371094 C 222.9375 204.027344 223.160156 203.695312 223.507812 203.628906 C 223.851562 203.558594 224.183594 203.785156 224.25 204.128906 C 224.289062 204.332031 228.078125 224.777344 211.867188 228.746094 C 210.996094 228.957031 209.996094 229.054688 208.902344 229.054688 " fill-opacity="1" fill-rule="nonzero"/><path fill="#feed01" d="M 124.296875 222.363281 C 124.101562 222.363281 123.914062 222.277344 123.789062 222.109375 C 123.578125 221.828125 123.636719 221.433594 123.914062 221.222656 C 142.3125 207.472656 165.117188 169.738281 165.34375 169.359375 C 165.523438 169.058594 165.914062 168.964844 166.214844 169.144531 C 166.515625 169.324219 166.609375 169.710938 166.429688 170.011719 C 166.199219 170.394531 143.273438 208.335938 124.675781 222.238281 C 124.5625 222.324219 124.429688 222.363281 124.296875 222.363281 " fill-opacity="1" fill-rule="nonzero"/><path fill="#feed01" d="M 122.816406 290.898438 C 122.164062 290.898438 121.503906 290.867188 120.847656 290.8125 C 120.496094 290.78125 120.238281 290.472656 120.269531 290.125 C 120.300781 289.777344 120.601562 289.519531 120.957031 289.546875 C 130.191406 290.34375 139.171875 285.191406 147.660156 274.226562 C 154.527344 265.359375 161.070312 252.71875 167.109375 236.652344 C 176.730469 211.074219 182.003906 184.78125 182.703125 181.164062 L 175.628906 176.660156 C 175.332031 176.46875 175.242188 176.078125 175.433594 175.78125 C 175.621094 175.488281 176.011719 175.402344 176.308594 175.589844 L 183.75 180.328125 C 183.96875 180.464844 184.082031 180.722656 184.03125 180.980469 C 183.980469 181.261719 178.644531 209.574219 168.304688 237.085938 C 162.21875 253.273438 155.613281 266.027344 148.667969 274.996094 C 140.492188 285.558594 131.804688 290.898438 122.816406 290.898438 " fill-opacity="1" fill-rule="nonzero"/><path fill="#ffffff" d="M 54.214844 112.925781 C 54.332031 124.609375 44.925781 134.476562 33.214844 134.964844 C 21.5 135.453125 11.910156 126.378906 11.796875 114.695312 C 11.679688 103.011719 21.085938 93.144531 32.796875 92.65625 C 44.511719 92.167969 54.101562 101.242188 54.214844 112.925781 " fill-opacity="1" fill-rule="nonzero"/><path fill="#000000" d="M 32.28125 136.289062 C 26.609375 136.289062 21.292969 134.191406 17.222656 130.324219 C 12.941406 126.253906 10.550781 120.71875 10.492188 114.730469 C 10.367188 102.359375 20.359375 91.871094 32.765625 91.355469 C 40.261719 91.042969 47.28125 94.457031 51.546875 100.488281 C 51.75 100.773438 51.683594 101.167969 51.398438 101.371094 C 51.109375 101.574219 50.714844 101.503906 50.511719 101.21875 C 46.496094 95.542969 39.886719 92.328125 32.816406 92.621094 C 21.089844 93.113281 11.644531 103.023438 11.757812 114.71875 C 11.8125 120.359375 14.0625 125.574219 18.09375 129.402344 C 22.144531 133.25 27.507812 135.238281 33.195312 135 C 44.921875 134.511719 54.367188 124.597656 54.253906 112.902344 C 54.25 112.554688 54.53125 112.265625 54.878906 112.265625 C 54.882812 112.265625 54.886719 112.265625 54.886719 112.265625 C 55.234375 112.265625 55.519531 112.542969 55.519531 112.890625 C 55.644531 125.265625 45.648438 135.75 33.246094 136.269531 C 32.925781 136.28125 32.601562 136.289062 32.28125 136.289062 " fill-opacity="1" fill-rule="nonzero"/><path fill="#000000" d="M 31.488281 126.484375 L 31.460938 123.546875 C 29.382812 123.542969 27.363281 123.070312 26.179688 122.441406 L 27.074219 118.785156 C 28.382812 119.441406 30.214844 120.015625 32.230469 119.933594 C 33.996094 119.859375 35.195312 119.128906 35.183594 117.890625 C 35.171875 116.71875 34.175781 116.019531 31.875 115.339844 C 28.550781 114.367188 26.273438 112.917969 26.242188 109.921875 C 26.21875 107.203125 28.117188 104.992188 31.425781 104.203125 L 31.394531 101.269531 L 34.429688 101.140625 L 34.457031 103.859375 C 36.535156 103.867188 37.933594 104.242188 38.960938 104.691406 L 38.09375 108.222656 C 37.285156 107.914062 35.855469 107.265625 33.625 107.355469 C 31.609375 107.441406 30.96875 108.332031 30.976562 109.195312 C 30.988281 110.21875 32.078125 110.820312 34.71875 111.699219 C 38.417969 112.84375 39.921875 114.480469 39.949219 117.261719 C 39.976562 120.011719 38.046875 122.441406 34.492188 123.207031 L 34.523438 126.355469 L 31.488281 126.484375 " fill-opacity="1" fill-rule="nonzero"/><path fill="#ed1b2f" d="M 82.042969 190.085938 L 20.601562 190.085938 C 16.914062 190.085938 14.152344 186.722656 14.898438 183.136719 L 24.21875 138.128906 C 25.003906 134.339844 28.355469 131.625 32.246094 131.625 L 84.949219 131.625 L 82.042969 190.085938 " fill-opacity="1" fill-rule="nonzero"/><path fill="#000000" d="M 32.246094 132.261719 C 28.671875 132.261719 25.558594 134.78125 24.839844 138.253906 L 15.515625 183.265625 C 15.203125 184.777344 15.585938 186.335938 16.5625 187.539062 C 17.554688 188.753906 19.027344 189.449219 20.601562 189.449219 L 81.441406 189.449219 L 84.28125 132.261719 Z M 82.042969 190.71875 L 20.601562 190.71875 C 18.644531 190.71875 16.8125 189.851562 15.582031 188.335938 C 14.359375 186.839844 13.882812 184.894531 14.277344 183.007812 L 23.597656 138 C 24.4375 133.9375 28.078125 130.992188 32.246094 130.992188 L 84.949219 130.992188 C 85.121094 130.992188 85.289062 131.0625 85.40625 131.1875 C 85.527344 131.316406 85.589844 131.484375 85.582031 131.65625 L 82.675781 190.117188 C 82.660156 190.457031 82.378906 190.71875 82.042969 190.71875 " fill-opacity="1" fill-rule="nonzero"/><path fill="#000000" d="M 89.910156 190.085938 L 77.984375 190.085938 C 74.296875 190.085938 71.539062 186.722656 72.28125 183.136719 L 82.546875 133.5625 C 82.78125 132.433594 83.78125 131.625 84.9375 131.625 L 88.003906 131.625 C 89.277344 131.625 90.335938 132.59375 90.4375 133.851562 L 94.636719 184.992188 C 94.863281 187.734375 92.683594 190.085938 89.910156 190.085938 " fill-opacity="1" fill-rule="nonzero"/><path fill="#000000" d="M 84.9375 132.261719 C 84.085938 132.261719 83.339844 132.863281 83.167969 133.691406 L 72.902344 183.265625 C 72.589844 184.777344 72.96875 186.335938 73.949219 187.539062 C 74.9375 188.753906 76.410156 189.449219 77.984375 189.449219 L 89.910156 189.449219 C 91.078125 189.449219 92.15625 188.980469 92.941406 188.125 C 93.722656 187.28125 94.101562 186.183594 94.003906 185.042969 L 89.804688 133.90625 C 89.730469 132.984375 88.9375 132.261719 88.003906 132.261719 Z M 89.910156 190.71875 L 77.984375 190.71875 C 76.027344 190.71875 74.199219 189.851562 72.964844 188.335938 C 71.746094 186.839844 71.269531 184.894531 71.660156 183.007812 L 81.925781 133.433594 C 82.21875 132.019531 83.488281 130.992188 84.9375 130.992188 L 88.003906 130.992188 C 89.59375 130.992188 90.941406 132.226562 91.070312 133.800781 L 95.269531 184.9375 C 95.390625 186.414062 94.882812 187.890625 93.875 188.984375 C 92.859375 190.085938 91.414062 190.71875 89.910156 190.71875 " fill-opacity="1" fill-rule="nonzero"/><path fill="#000000" d="M 70.820312 155.886719 L 25.566406 155.886719 C 25.214844 155.886719 24.929688 155.601562 24.929688 155.25 C 24.929688 154.902344 25.214844 154.617188 25.566406 154.617188 L 70.820312 154.617188 C 71.957031 154.617188 72.933594 153.851562 73.195312 152.753906 L 77.4375 134.972656 C 77.515625 134.628906 77.859375 134.421875 78.199219 134.503906 C 78.539062 134.582031 78.75 134.925781 78.667969 135.265625 L 74.429688 153.046875 C 74.03125 154.71875 72.546875 155.886719 70.820312 155.886719 " fill-opacity="1" fill-rule="nonzero"/><path fill="#ffffff" d="M 55.203125 155.25 L 54.222656 160.652344 C 54.003906 161.5625 53.183594 162.210938 52.238281 162.210938 L 42.710938 162.210938 C 41.671875 162.210938 40.921875 161.226562 41.199219 160.234375 L 42.226562 155.25 L 55.203125 155.25 " fill-opacity="1" fill-rule="nonzero"/><path fill="#000000" d="M 42.746094 155.886719 L 41.820312 160.363281 C 41.816406 160.378906 41.8125 160.390625 41.808594 160.40625 C 41.730469 160.683594 41.785156 160.976562 41.960938 161.207031 C 42.140625 161.441406 42.414062 161.574219 42.710938 161.574219 L 52.238281 161.574219 C 52.890625 161.574219 53.453125 161.136719 53.605469 160.503906 L 54.441406 155.886719 Z M 52.238281 162.84375 L 42.710938 162.84375 C 42.011719 162.84375 41.371094 162.527344 40.953125 161.972656 C 40.539062 161.429688 40.40625 160.742188 40.582031 160.085938 L 41.605469 155.125 C 41.667969 154.828125 41.925781 154.617188 42.226562 154.617188 L 55.203125 154.617188 C 55.390625 154.617188 55.570312 154.703125 55.6875 154.84375 C 55.808594 154.988281 55.859375 155.179688 55.828125 155.363281 L 54.84375 160.765625 C 54.550781 162.003906 53.480469 162.84375 52.238281 162.84375 " fill-opacity="1" fill-rule="nonzero"/><path fill="#000000" d="M 67.617188 186.199219 L 20.105469 186.199219 C 19.753906 186.199219 19.472656 185.914062 19.472656 185.5625 C 19.472656 185.214844 19.753906 184.929688 20.105469 184.929688 L 67.617188 184.929688 C 67.96875 184.929688 68.25 185.214844 68.25 185.5625 C 68.25 185.914062 67.96875 186.199219 67.617188 186.199219 " fill-opacity="1" fill-rule="nonzero"/><path fill="#000000" d="M 44.792969 128.707031 L 40.019531 128.707031 C 38.351562 128.707031 38.066406 130.449219 38.066406 131.523438 L 46.746094 131.523438 C 46.746094 130.449219 46.460938 128.707031 44.792969 128.707031 " fill-opacity="1" fill-rule="nonzero"/><path fill="#000000" d="M 38.734375 130.886719 L 46.074219 130.886719 C 45.980469 130.085938 45.65625 129.34375 44.792969 129.34375 L 40.019531 129.34375 C 39.15625 129.34375 38.832031 130.085938 38.734375 130.886719 Z M 46.746094 132.15625 L 38.066406 132.15625 C 37.714844 132.15625 37.433594 131.871094 37.433594 131.523438 C 37.433594 129.363281 38.398438 128.074219 40.019531 128.074219 L 44.792969 128.074219 C 46.414062 128.074219 47.378906 129.363281 47.378906 131.523438 C 47.378906 131.871094 47.097656 132.15625 46.746094 132.15625 " fill-opacity="1" fill-rule="nonzero"/><path fill="#000000" d="M 76.359375 128.707031 L 71.597656 128.707031 C 69.730469 128.707031 69.644531 130.449219 69.644531 131.523438 L 78.308594 131.523438 C 78.308594 130.449219 78.109375 128.707031 76.359375 128.707031 " fill-opacity="1" fill-rule="nonzero"/><path fill="#000000" d="M 70.300781 130.886719 L 77.644531 130.886719 C 77.480469 129.34375 76.710938 129.34375 76.359375 129.34375 L 71.597656 129.34375 C 70.765625 129.34375 70.390625 129.761719 70.300781 130.886719 Z M 78.308594 132.15625 L 69.644531 132.15625 C 69.292969 132.15625 69.011719 131.871094 69.011719 131.523438 C 69.011719 130.667969 69.011719 128.074219 71.597656 128.074219 L 76.359375 128.074219 C 77.324219 128.074219 78.945312 128.523438 78.945312 131.523438 C 78.945312 131.871094 78.660156 132.15625 78.308594 132.15625 " fill-opacity="1" fill-rule="nonzero"/><path fill="#ffffff" d="M 75.609375 128.605469 L 76.253906 124.8125 C 76.710938 122.121094 74.882812 119.648438 72.175781 119.648438 L 47.015625 119.648438 C 44.308594 119.648438 41.742188 122.121094 41.289062 124.8125 L 40.644531 128.605469 L 44.320312 128.605469 L 44.820312 125.652344 C 45.175781 123.558594 47.171875 122.152344 49.277344 122.152344 L 69.570312 122.152344 C 71.964844 122.152344 73.097656 123.558594 72.742188 125.652344 L 72.242188 128.605469 L 75.609375 128.605469 " fill-opacity="1" fill-rule="nonzero"/><path fill="#000000" d="M 72.992188 127.96875 L 75.074219 127.96875 L 75.628906 124.707031 C 75.828125 123.519531 75.527344 122.347656 74.800781 121.488281 C 74.144531 120.710938 73.210938 120.285156 72.175781 120.285156 L 47.015625 120.285156 C 44.714844 120.285156 42.332031 122.449219 41.914062 124.917969 L 41.394531 127.96875 L 43.785156 127.96875 L 44.195312 125.546875 C 44.585938 123.25 46.769531 121.519531 49.28125 121.519531 L 69.570312 121.519531 C 70.941406 121.519531 72.023438 121.941406 72.699219 122.742188 C 73.34375 123.503906 73.574219 124.546875 73.367188 125.757812 Z M 75.609375 129.238281 L 72.242188 129.238281 C 72.054688 129.238281 71.878906 129.15625 71.757812 129.011719 C 71.636719 128.871094 71.585938 128.679688 71.617188 128.496094 L 72.117188 125.546875 C 72.214844 124.964844 72.230469 124.148438 71.730469 123.558594 C 71.304688 123.054688 70.554688 122.785156 69.570312 122.785156 L 49.28125 122.785156 C 47.382812 122.785156 45.734375 124.0625 45.445312 125.757812 L 44.945312 128.710938 C 44.894531 129.015625 44.628906 129.238281 44.320312 129.238281 L 40.644531 129.238281 C 40.457031 129.238281 40.28125 129.15625 40.160156 129.011719 C 40.039062 128.871094 39.988281 128.679688 40.019531 128.496094 L 40.660156 124.707031 C 41.183594 121.621094 44.09375 119.015625 47.015625 119.015625 L 72.175781 119.015625 C 73.59375 119.015625 74.871094 119.601562 75.769531 120.671875 C 76.738281 121.816406 77.140625 123.363281 76.878906 124.917969 L 76.234375 128.710938 C 76.183594 129.015625 75.917969 129.238281 75.609375 129.238281 " fill-opacity="1" fill-rule="nonzero"/><path fill="#ed1b2f" d="M 70.695312 118.371094 L 49.679688 118.371094 C 48.835938 118.371094 48.03125 119.054688 47.890625 119.894531 L 47.582031 121.71875 C 47.4375 122.558594 48.007812 123.238281 48.855469 123.238281 L 69.867188 123.238281 C 70.714844 123.238281 71.519531 122.558594 71.660156 121.71875 L 71.96875 119.894531 C 72.113281 119.054688 71.542969 118.371094 70.695312 118.371094 " fill-opacity="1" fill-rule="nonzero"/><path fill="#000000" d="M 49.679688 119.003906 C 49.140625 119.003906 48.605469 119.460938 48.515625 119.996094 L 48.207031 121.824219 C 48.167969 122.046875 48.214844 122.246094 48.335938 122.386719 C 48.453125 122.527344 48.636719 122.605469 48.855469 122.605469 L 69.867188 122.605469 C 70.410156 122.605469 70.945312 122.148438 71.035156 121.609375 L 71.34375 119.789062 C 71.382812 119.566406 71.335938 119.363281 71.214844 119.222656 C 71.097656 119.082031 70.910156 119.003906 70.695312 119.003906 Z M 69.867188 123.875 L 48.855469 123.875 C 48.257812 123.875 47.730469 123.636719 47.367188 123.207031 C 47.007812 122.78125 46.855469 122.199219 46.957031 121.609375 L 47.265625 119.789062 C 47.460938 118.636719 48.519531 117.738281 49.679688 117.738281 L 70.695312 117.738281 C 71.292969 117.738281 71.820312 117.972656 72.183594 118.402344 C 72.542969 118.832031 72.695312 119.410156 72.59375 119.996094 L 72.285156 121.824219 C 72.089844 122.972656 71.027344 123.875 69.867188 123.875 " fill-opacity="1" fill-rule="nonzero"/><path fill="#ed1b2f" d="M 77.875 186.199219 C 77.652344 186.199219 77.4375 186.082031 77.320312 185.875 C 77.148438 185.570312 77.257812 185.183594 77.5625 185.011719 L 85.476562 180.53125 L 85.476562 135.117188 C 85.476562 134.769531 85.757812 134.484375 86.109375 134.484375 C 86.460938 134.484375 86.742188 134.769531 86.742188 135.117188 L 86.742188 180.902344 C 86.742188 181.128906 86.621094 181.339844 86.421875 181.453125 L 78.183594 186.117188 C 78.085938 186.171875 77.980469 186.199219 77.875 186.199219 " fill-opacity="1" fill-rule="nonzero"/><path fill="#ffffff" d="M 351.632812 201.671875 L 285.847656 201.671875 C 285.03125 201.671875 284.367188 201.007812 284.367188 200.1875 L 284.367188 156.378906 C 284.367188 155.558594 285.03125 154.898438 285.847656 154.898438 L 351.632812 154.898438 C 352.453125 154.898438 353.117188 155.558594 353.117188 156.378906 L 353.117188 200.1875 C 353.117188 201.007812 352.453125 201.671875 351.632812 201.671875 " fill-opacity="1" fill-rule="nonzero"/><path fill="#000000" d="M 350.0625 202.242188 L 341.429688 202.242188 C 341.078125 202.242188 340.796875 201.957031 340.796875 201.609375 C 340.796875 201.257812 341.078125 200.976562 341.429688 200.976562 L 350.0625 200.976562 C 351.519531 200.976562 352.703125 199.796875 352.703125 198.355469 L 352.703125 158.042969 C 352.703125 156.597656 351.519531 155.417969 350.0625 155.417969 L 290.371094 155.417969 C 290.023438 155.417969 289.738281 155.136719 289.738281 154.785156 C 289.738281 154.433594 290.023438 154.152344 290.371094 154.152344 L 350.0625 154.152344 C 352.214844 154.152344 353.972656 155.898438 353.972656 158.042969 L 353.972656 198.355469 C 353.972656 200.5 352.214844 202.242188 350.0625 202.242188 " fill-opacity="1" fill-rule="nonzero"/><path fill="#000000" d="M 309.539062 202.242188 L 287.871094 202.242188 C 285.714844 202.242188 283.957031 200.496094 283.957031 198.351562 L 283.957031 180.410156 C 283.957031 180.058594 284.238281 179.777344 284.59375 179.777344 C 284.941406 179.777344 285.226562 180.058594 285.226562 180.410156 L 285.226562 198.351562 C 285.226562 199.796875 286.410156 200.976562 287.871094 200.976562 L 309.539062 200.976562 C 309.890625 200.976562 310.175781 201.257812 310.175781 201.609375 C 310.175781 201.957031 309.890625 202.242188 309.539062 202.242188 " fill-opacity="1" fill-rule="nonzero"/><path fill="#000000" d="M 318.964844 196.195312 C 318.617188 196.195312 318.332031 195.910156 318.332031 195.5625 L 318.332031 161.464844 C 318.332031 161.113281 318.617188 160.828125 318.964844 160.828125 C 319.316406 160.828125 319.601562 161.113281 319.601562 161.464844 L 319.601562 195.5625 C 319.601562 195.910156 319.316406 196.195312 318.964844 196.195312 " fill-opacity="1" fill-rule="nonzero"/><path fill="#000000" d="M 316.8125 163.992188 L 318.964844 161.835938 L 321.113281 163.992188 L 321.113281 162.164062 L 318.964844 160.015625 L 316.8125 162.164062 L 316.8125 163.992188 " fill-opacity="1" fill-rule="nonzero"/><path fill="#000000" d="M 344.753906 182.445312 L 291.730469 182.445312 C 291.378906 182.445312 291.09375 182.164062 291.09375 181.8125 C 291.09375 181.464844 291.378906 181.179688 291.730469 181.179688 L 344.753906 181.179688 C 345.101562 181.179688 345.386719 181.464844 345.386719 181.8125 C 345.386719 182.164062 345.101562 182.445312 344.753906 182.445312 " fill-opacity="1" fill-rule="nonzero"/><path fill="#000000" d="M 342.226562 183.964844 L 344.378906 181.8125 L 342.226562 179.664062 L 344.054688 179.664062 L 346.203125 181.8125 L 344.054688 183.964844 L 342.226562 183.964844 " fill-opacity="1" fill-rule="nonzero"/><path fill="#000000" d="M 319.085938 193.84375 C 312.71875 193.84375 307.535156 188.695312 307.535156 182.367188 L 307.535156 175.9375 C 307.535156 170.308594 302.925781 165.726562 297.253906 165.726562 L 291.730469 165.726562 C 291.378906 165.726562 291.097656 165.445312 291.097656 165.09375 C 291.097656 164.742188 291.378906 164.457031 291.730469 164.457031 L 297.253906 164.457031 C 303.621094 164.457031 308.804688 169.605469 308.804688 175.9375 L 308.804688 182.367188 C 308.804688 187.996094 313.417969 192.574219 319.085938 192.574219 C 324.757812 192.574219 329.371094 187.996094 329.371094 182.367188 L 329.371094 175.9375 C 329.371094 169.605469 334.550781 164.457031 340.921875 164.457031 L 344.160156 164.457031 C 344.507812 164.457031 344.792969 164.742188 344.792969 165.09375 C 344.792969 165.445312 344.507812 165.726562 344.160156 165.726562 L 340.921875 165.726562 C 335.25 165.726562 330.640625 170.308594 330.640625 175.9375 L 330.640625 182.367188 C 330.640625 188.695312 325.453125 193.84375 319.085938 193.84375 " fill-opacity="1" fill-rule="nonzero"/><path fill="#000000" d="M 265.96875 174.09375 L 294.542969 174.09375 L 265.96875 144.816406 Z M 296.046875 175.363281 L 265.332031 175.363281 C 264.984375 175.363281 264.703125 175.078125 264.703125 174.730469 L 264.703125 143.257812 C 264.703125 143 264.855469 142.769531 265.09375 142.671875 C 265.332031 142.574219 265.605469 142.632812 265.789062 142.816406 L 296.5 174.285156 C 296.679688 174.46875 296.730469 174.738281 296.632812 174.976562 C 296.535156 175.210938 296.304688 175.363281 296.046875 175.363281 " fill-opacity="1" fill-rule="nonzero"/><path fill="#000000" d="M 268.230469 174.730469 C 268.230469 176.320312 266.933594 177.609375 265.332031 177.609375 C 263.730469 177.609375 262.433594 176.320312 262.433594 174.730469 C 262.433594 173.140625 263.730469 171.851562 265.332031 171.851562 C 266.933594 171.851562 268.230469 173.140625 268.230469 174.730469 " fill-opacity="1" fill-rule="nonzero"/><path fill="#000000" d="M 265.335938 172.484375 C 264.085938 172.484375 263.070312 173.492188 263.070312 174.730469 C 263.070312 175.964844 264.085938 176.972656 265.335938 176.972656 C 266.585938 176.972656 267.601562 175.964844 267.601562 174.730469 C 267.601562 173.492188 266.585938 172.484375 265.335938 172.484375 Z M 265.335938 178.238281 C 263.386719 178.238281 261.804688 176.667969 261.804688 174.730469 C 261.804688 172.792969 263.386719 171.214844 265.335938 171.214844 C 267.28125 171.214844 268.867188 172.792969 268.867188 174.730469 C 268.867188 176.667969 267.28125 178.238281 265.335938 178.238281 " fill-opacity="1" fill-rule="nonzero"/><path fill="#000000" d="M 298.945312 174.730469 C 298.945312 176.320312 297.648438 177.609375 296.046875 177.609375 C 294.445312 177.609375 293.148438 176.320312 293.148438 174.730469 C 293.148438 173.140625 294.445312 171.851562 296.046875 171.851562 C 297.648438 171.851562 298.945312 173.140625 298.945312 174.730469 " fill-opacity="1" fill-rule="nonzero"/><path fill="#000000" d="M 296.046875 172.484375 C 294.796875 172.484375 293.78125 173.492188 293.78125 174.730469 C 293.78125 175.964844 294.796875 176.972656 296.046875 176.972656 C 297.292969 176.972656 298.3125 175.964844 298.3125 174.730469 C 298.3125 173.492188 297.292969 172.484375 296.046875 172.484375 Z M 296.046875 178.242188 C 294.101562 178.242188 292.515625 176.667969 292.515625 174.730469 C 292.515625 172.792969 294.101562 171.214844 296.046875 171.214844 C 297.992188 171.214844 299.582031 172.792969 299.582031 174.730469 C 299.582031 176.667969 297.992188 178.242188 296.046875 178.242188 " fill-opacity="1" fill-rule="nonzero"/><path fill="#000000" d="M 268.230469 143.257812 C 268.230469 144.851562 266.933594 146.140625 265.332031 146.140625 C 263.730469 146.140625 262.433594 144.851562 262.433594 143.257812 C 262.433594 141.671875 263.730469 140.382812 265.332031 140.382812 C 266.933594 140.382812 268.230469 141.671875 268.230469 143.257812 " fill-opacity="1" fill-rule="nonzero"/><path fill="#000000" d="M 265.335938 141.011719 C 264.085938 141.011719 263.070312 142.019531 263.070312 143.257812 C 263.070312 144.496094 264.085938 145.5 265.335938 145.5 C 266.585938 145.5 267.601562 144.496094 267.601562 143.257812 C 267.601562 142.019531 266.585938 141.011719 265.335938 141.011719 Z M 265.335938 146.769531 C 263.386719 146.769531 261.804688 145.195312 261.804688 143.257812 C 261.804688 141.320312 263.386719 139.742188 265.335938 139.742188 C 267.28125 139.742188 268.867188 141.320312 268.867188 143.257812 C 268.867188 145.195312 267.28125 146.769531 265.335938 146.769531 " fill-opacity="1" fill-rule="nonzero"/><path fill="#ffffff" d="M 318.367188 97.570312 L 265.707031 97.570312 C 264.683594 97.570312 263.847656 96.738281 263.847656 95.707031 L 263.847656 42.855469 C 263.847656 41.824219 264.683594 40.992188 265.707031 40.992188 L 318.367188 40.992188 C 319.394531 40.992188 320.230469 41.824219 320.230469 42.855469 L 320.230469 95.707031 C 320.230469 96.738281 319.394531 97.570312 318.367188 97.570312 " fill-opacity="1" fill-rule="nonzero"/><path fill="#000000" d="M 267.953125 41.625 C 266.039062 41.625 264.480469 43.183594 264.480469 45.097656 L 264.480469 93.464844 C 264.480469 95.378906 266.039062 96.9375 267.953125 96.9375 L 316.125 96.9375 C 318.035156 96.9375 319.59375 95.378906 319.59375 93.464844 L 319.59375 45.097656 C 319.59375 43.183594 318.035156 41.625 316.125 41.625 Z M 316.125 98.203125 L 267.953125 98.203125 C 265.339844 98.203125 263.210938 96.078125 263.210938 93.464844 L 263.210938 45.097656 C 263.210938 42.484375 265.339844 40.355469 267.953125 40.355469 L 316.125 40.355469 C 318.734375 40.355469 320.863281 42.484375 320.863281 45.097656 L 320.863281 93.464844 C 320.863281 96.078125 318.734375 98.203125 316.125 98.203125 " fill-opacity="1" fill-rule="nonzero"/><path fill="#ed1b2f" d="M 271.222656 78.457031 C 270.984375 78.457031 270.753906 78.316406 270.644531 78.082031 C 270.5 77.761719 270.644531 77.386719 270.96875 77.242188 C 290.351562 68.570312 305.222656 56.335938 312.675781 47.78125 C 312.90625 47.515625 313.308594 47.488281 313.570312 47.71875 C 313.835938 47.949219 313.863281 48.347656 313.632812 48.613281 C 306.09375 57.269531 291.058594 69.644531 271.484375 78.402344 C 271.398438 78.4375 271.308594 78.457031 271.222656 78.457031 " fill-opacity="1" fill-rule="nonzero"/><path fill="#ed1b2f" d="M 313.546875 52.230469 C 313.542969 52.230469 313.542969 52.230469 313.539062 52.230469 C 313.191406 52.226562 312.910156 51.941406 312.914062 51.589844 L 312.953125 48.085938 L 309.238281 47.972656 C 308.890625 47.960938 308.613281 47.667969 308.625 47.320312 C 308.636719 46.96875 308.929688 46.675781 309.28125 46.703125 L 313.613281 46.835938 C 313.960938 46.847656 314.234375 47.132812 314.226562 47.476562 L 314.179688 51.605469 C 314.175781 51.953125 313.894531 52.230469 313.546875 52.230469 " fill-opacity="1" fill-rule="nonzero"/><path fill="#feed01" d="M 275.644531 91.632812 L 271.859375 91.632812 C 271.265625 91.632812 270.789062 91.152344 270.789062 90.558594 L 270.789062 85.179688 C 270.789062 84.585938 271.265625 84.109375 271.859375 84.109375 L 275.644531 84.109375 C 276.234375 84.109375 276.710938 84.585938 276.710938 85.179688 L 276.710938 90.558594 C 276.710938 91.152344 276.234375 91.632812 275.644531 91.632812 " fill-opacity="1" fill-rule="nonzero"/><path fill="#feed01" d="M 287.988281 91.632812 L 284.203125 91.632812 C 283.609375 91.632812 283.132812 91.152344 283.132812 90.558594 L 283.132812 78.519531 C 283.132812 77.925781 283.609375 77.449219 284.203125 77.449219 L 287.988281 77.449219 C 288.574219 77.449219 289.054688 77.925781 289.054688 78.519531 L 289.054688 90.558594 C 289.054688 91.152344 288.574219 91.632812 287.988281 91.632812 " fill-opacity="1" fill-rule="nonzero"/><path fill="#feed01" d="M 300.332031 91.628906 L 296.546875 91.628906 C 295.957031 91.628906 295.476562 91.152344 295.476562 90.558594 L 295.476562 71.378906 C 295.476562 70.785156 295.957031 70.308594 296.546875 70.308594 L 300.332031 70.308594 C 300.925781 70.308594 301.402344 70.785156 301.402344 71.378906 L 301.402344 90.558594 C 301.402344 91.152344 300.925781 91.628906 300.332031 91.628906 " fill-opacity="1" fill-rule="nonzero"/><path fill="#ed1b2f" d="M 312.675781 91.628906 L 308.894531 91.628906 C 308.304688 91.628906 307.824219 91.148438 307.824219 90.558594 L 307.824219 62.15625 C 307.824219 61.566406 308.304688 61.089844 308.894531 61.089844 L 312.675781 61.089844 C 313.269531 61.089844 313.75 61.566406 313.75 62.15625 L 313.75 90.558594 C 313.75 91.148438 313.269531 91.628906 312.675781 91.628906 " fill-opacity="1" fill-rule="nonzero"/><path fill="#ffffff" d="M 264.410156 54.9375 C 257.453125 54.9375 251.808594 49.335938 251.808594 42.421875 C 251.808594 35.507812 257.453125 29.90625 264.410156 29.90625 C 271.367188 29.90625 277.011719 35.507812 277.011719 42.421875 C 277.011719 49.335938 271.367188 54.9375 264.410156 54.9375 Z M 288.648438 37.121094 C 288.605469 36.828125 288.367188 36.605469 288.066406 36.582031 L 283.78125 36.234375 C 283.53125 36.214844 283.316406 36.046875 283.238281 35.8125 C 282.957031 35.019531 282.628906 34.25 282.257812 33.511719 C 282.144531 33.292969 282.171875 33.023438 282.332031 32.832031 L 285.050781 29.523438 C 285.238281 29.292969 285.242188 28.96875 285.058594 28.734375 L 282.738281 25.789062 C 282.554688 25.554688 282.234375 25.476562 281.964844 25.605469 L 278.074219 27.4375 C 277.847656 27.542969 277.582031 27.503906 277.386719 27.34375 C 276.753906 26.800781 276.085938 26.300781 275.386719 25.847656 C 275.179688 25.707031 275.066406 25.464844 275.109375 25.21875 L 275.796875 20.996094 C 275.847656 20.703125 275.683594 20.417969 275.40625 20.308594 L 271.914062 18.90625 C 271.636719 18.796875 271.320312 18.894531 271.152344 19.136719 L 268.710938 22.648438 C 268.566406 22.855469 268.316406 22.953125 268.070312 22.90625 C 267.257812 22.757812 266.421875 22.660156 265.578125 22.609375 C 265.328125 22.59375 265.109375 22.441406 265.019531 22.207031 L 263.496094 18.207031 C 263.390625 17.929688 263.105469 17.765625 262.8125 17.804688 L 259.082031 18.332031 C 258.785156 18.371094 258.5625 18.609375 258.539062 18.90625 L 258.1875 23.167969 C 258.167969 23.417969 258 23.628906 257.761719 23.710938 C 256.964844 23.988281 256.191406 24.3125 255.449219 24.683594 C 255.226562 24.792969 254.960938 24.769531 254.765625 24.613281 L 251.4375 21.910156 C 251.207031 21.722656 250.875 21.71875 250.640625 21.902344 L 247.675781 24.210938 C 247.441406 24.390625 247.367188 24.710938 247.492188 24.976562 L 249.335938 28.847656 C 249.441406 29.070312 249.402344 29.335938 249.238281 29.523438 C 248.695312 30.15625 248.195312 30.820312 247.734375 31.515625 C 247.597656 31.722656 247.351562 31.835938 247.101562 31.792969 L 242.855469 31.105469 C 242.5625 31.058594 242.273438 31.21875 242.160156 31.496094 L 240.753906 34.96875 C 240.644531 35.242188 240.738281 35.554688 240.984375 35.722656 L 244.515625 38.152344 C 244.722656 38.292969 244.820312 38.542969 244.777344 38.785156 C 244.625 39.597656 244.523438 40.425781 244.476562 41.265625 C 244.464844 41.511719 244.304688 41.730469 244.070312 41.820312 L 240.046875 43.335938 C 239.769531 43.441406 239.605469 43.722656 239.644531 44.015625 L 240.171875 47.722656 C 240.210938 48.015625 240.453125 48.242188 240.75 48.265625 L 245.039062 48.613281 C 245.289062 48.632812 245.5 48.796875 245.585938 49.035156 C 245.863281 49.824219 246.1875 50.59375 246.5625 51.332031 C 246.675781 51.554688 246.648438 51.820312 246.488281 52.011719 L 243.769531 55.320312 C 243.582031 55.550781 243.578125 55.875 243.757812 56.109375 L 246.082031 59.058594 C 246.265625 59.289062 246.589844 59.363281 246.855469 59.238281 L 250.746094 57.40625 C 250.972656 57.300781 251.242188 57.339844 251.429688 57.503906 C 252.066406 58.042969 252.738281 58.542969 253.433594 59 C 253.640625 59.136719 253.753906 59.378906 253.714844 59.625 L 253.019531 63.851562 C 252.976562 64.140625 253.136719 64.425781 253.410156 64.539062 L 256.90625 65.933594 C 257.179688 66.046875 257.496094 65.953125 257.664062 65.707031 L 260.113281 62.195312 C 260.253906 61.992188 260.503906 61.894531 260.746094 61.9375 C 261.566406 62.089844 262.398438 62.1875 263.238281 62.234375 C 263.488281 62.246094 263.710938 62.402344 263.800781 62.636719 L 265.324219 66.636719 C 265.429688 66.910156 265.714844 67.082031 266.011719 67.039062 L 269.738281 66.515625 C 270.03125 66.472656 270.257812 66.234375 270.285156 65.941406 L 270.632812 61.675781 C 270.652344 61.425781 270.820312 61.21875 271.058594 61.136719 C 271.855469 60.855469 272.625 60.53125 273.371094 60.160156 C 273.59375 60.050781 273.863281 60.074219 274.054688 60.234375 L 277.382812 62.933594 C 277.613281 63.121094 277.945312 63.125 278.175781 62.941406 L 281.144531 60.636719 C 281.378906 60.453125 281.453125 60.136719 281.328125 59.867188 L 279.484375 56 C 279.375 55.777344 279.414062 55.511719 279.578125 55.324219 C 280.121094 54.691406 280.625 54.023438 281.085938 53.328125 C 281.222656 53.121094 281.46875 53.011719 281.714844 53.050781 L 285.964844 53.738281 C 286.257812 53.785156 286.546875 53.625 286.65625 53.351562 L 288.066406 49.878906 C 288.175781 49.605469 288.082031 49.289062 287.835938 49.121094 L 284.300781 46.691406 C 284.097656 46.550781 283.996094 46.304688 284.039062 46.058594 C 284.195312 45.246094 284.292969 44.417969 284.339844 43.578125 C 284.355469 43.332031 284.511719 43.113281 284.75 43.027344 L 288.769531 41.507812 C 289.046875 41.40625 289.214844 41.121094 289.175781 40.828125 L 288.648438 37.121094 " fill-opacity="1" fill-rule="nonzero"/><path fill="#000000" d="M 264.410156 30.539062 C 257.808594 30.539062 252.445312 35.871094 252.445312 42.425781 C 252.445312 48.972656 257.808594 54.304688 264.410156 54.304688 C 271.007812 54.304688 276.378906 48.972656 276.378906 42.425781 C 276.378906 35.871094 271.007812 30.539062 264.410156 30.539062 Z M 264.410156 55.574219 C 257.113281 55.574219 251.171875 49.671875 251.171875 42.425781 C 251.171875 35.171875 257.113281 29.273438 264.410156 29.273438 C 271.707031 29.273438 277.644531 35.171875 277.644531 42.425781 C 277.644531 49.671875 271.707031 55.574219 264.410156 55.574219 Z M 288.019531 37.210938 Z M 260.632812 61.292969 C 260.710938 61.292969 260.785156 61.300781 260.863281 61.3125 C 261.648438 61.460938 262.460938 61.554688 263.277344 61.601562 C 263.773438 61.628906 264.214844 61.945312 264.390625 62.410156 L 265.914062 66.410156 L 269.648438 65.886719 L 270 61.625 C 270.042969 61.125 270.375 60.699219 270.847656 60.535156 C 271.621094 60.265625 272.375 59.949219 273.085938 59.59375 C 273.53125 59.371094 274.070312 59.429688 274.453125 59.738281 L 277.78125 62.441406 L 280.753906 60.136719 L 278.910156 56.273438 C 278.695312 55.824219 278.769531 55.289062 279.097656 54.910156 C 279.621094 54.296875 280.113281 53.648438 280.558594 52.980469 C 280.832031 52.5625 281.328125 52.347656 281.816406 52.425781 L 286.066406 53.113281 L 287.476562 49.640625 L 283.941406 47.214844 C 283.53125 46.933594 283.324219 46.433594 283.417969 45.945312 C 283.566406 45.164062 283.660156 44.355469 283.710938 43.546875 C 283.738281 43.042969 284.058594 42.605469 284.523438 42.429688 L 288.546875 40.914062 L 288.019531 37.214844 L 283.730469 36.867188 C 283.234375 36.828125 282.808594 36.496094 282.636719 36.023438 C 282.367188 35.257812 282.050781 34.511719 281.691406 33.796875 C 281.464844 33.351562 281.527344 32.8125 281.839844 32.433594 L 284.558594 29.121094 L 282.238281 26.179688 L 278.339844 28.011719 C 277.894531 28.222656 277.359375 28.152344 276.980469 27.824219 C 276.363281 27.304688 275.710938 26.816406 275.039062 26.375 C 274.621094 26.101562 274.402344 25.605469 274.480469 25.117188 L 275.171875 20.894531 L 271.679688 19.496094 L 269.230469 23.011719 C 268.945312 23.417969 268.449219 23.617188 267.957031 23.53125 C 267.171875 23.386719 266.359375 23.289062 265.542969 23.242188 C 265.042969 23.214844 264.605469 22.898438 264.429688 22.433594 L 262.902344 18.433594 L 259.167969 18.960938 L 258.820312 23.222656 C 258.777344 23.71875 258.445312 24.144531 257.972656 24.308594 C 257.199219 24.578125 256.445312 24.894531 255.730469 25.25 C 255.285156 25.472656 254.75 25.414062 254.367188 25.105469 L 251.039062 22.402344 L 248.066406 24.710938 L 249.910156 28.574219 C 250.121094 29.023438 250.046875 29.558594 249.722656 29.9375 C 249.195312 30.546875 248.707031 31.195312 248.261719 31.867188 C 247.984375 32.28125 247.492188 32.5 247 32.417969 L 242.753906 31.734375 L 241.339844 35.207031 L 244.875 37.628906 C 245.285156 37.914062 245.492188 38.410156 245.398438 38.902344 C 245.253906 39.683594 245.15625 40.488281 245.109375 41.300781 C 245.082031 41.800781 244.761719 42.238281 244.296875 42.414062 L 240.269531 43.929688 L 240.796875 47.636719 L 245.089844 47.980469 C 245.585938 48.019531 246.011719 48.351562 246.179688 48.824219 C 246.449219 49.585938 246.769531 50.335938 247.125 51.046875 C 247.355469 51.492188 247.296875 52.03125 246.980469 52.414062 L 244.261719 55.722656 L 246.582031 58.667969 L 250.476562 56.835938 C 250.925781 56.625 251.460938 56.695312 251.839844 57.019531 C 252.453125 57.542969 253.109375 58.027344 253.78125 58.46875 C 254.199219 58.746094 254.417969 59.234375 254.339844 59.726562 L 253.648438 63.953125 L 257.140625 65.347656 L 259.589844 61.832031 C 259.828125 61.492188 260.21875 61.292969 260.632812 61.292969 Z M 265.914062 67.679688 C 265.394531 67.679688 264.921875 67.363281 264.730469 66.863281 L 263.207031 62.863281 C 262.332031 62.820312 261.472656 62.714844 260.632812 62.5625 L 258.1875 66.070312 C 257.847656 66.558594 257.222656 66.746094 256.667969 66.523438 L 253.175781 65.125 C 252.621094 64.902344 252.300781 64.335938 252.394531 63.75 L 253.085938 59.523438 C 252.367188 59.0625 251.671875 58.542969 251.019531 57.984375 L 247.125 59.8125 C 246.585938 60.066406 245.953125 59.917969 245.585938 59.449219 L 243.261719 56.503906 C 242.890625 56.035156 242.902344 55.382812 243.28125 54.917969 L 246 51.609375 C 245.613281 50.859375 245.273438 50.0625 244.984375 49.246094 L 240.699219 48.894531 C 240.101562 48.847656 239.628906 48.402344 239.542969 47.8125 L 239.015625 44.105469 C 238.933594 43.511719 239.265625 42.953125 239.824219 42.742188 L 243.847656 41.226562 C 243.894531 40.363281 243.996094 39.5 244.152344 38.667969 L 240.621094 36.246094 C 240.128906 35.90625 239.945312 35.28125 240.164062 34.730469 L 241.574219 31.257812 C 241.800781 30.703125 242.367188 30.382812 242.957031 30.484375 L 247.207031 31.167969 C 247.679688 30.453125 248.203125 29.757812 248.761719 29.109375 L 246.921875 25.25 C 246.664062 24.710938 246.816406 24.074219 247.285156 23.710938 L 250.253906 21.402344 C 250.722656 21.035156 251.371094 21.042969 251.835938 21.417969 L 255.164062 24.117188 C 255.929688 23.734375 256.730469 23.398438 257.554688 23.113281 L 257.90625 18.855469 C 257.953125 18.257812 258.398438 17.789062 258.992188 17.703125 L 262.722656 17.179688 C 263.3125 17.097656 263.875 17.425781 264.085938 17.984375 L 265.609375 21.984375 C 266.484375 22.027344 267.351562 22.128906 268.183594 22.285156 L 270.628906 18.773438 C 270.972656 18.285156 271.597656 18.101562 272.152344 18.320312 L 275.644531 19.71875 C 276.199219 19.945312 276.519531 20.507812 276.421875 21.097656 L 275.730469 25.324219 C 276.449219 25.78125 277.144531 26.304688 277.800781 26.859375 L 281.695312 25.03125 C 282.230469 24.777344 282.863281 24.929688 283.234375 25.394531 L 285.558594 28.34375 C 285.925781 28.8125 285.921875 29.464844 285.539062 29.925781 L 282.820312 33.234375 C 283.207031 33.988281 283.546875 34.785156 283.835938 35.601562 L 288.121094 35.949219 C 288.714844 35.996094 289.191406 36.441406 289.273438 37.03125 L 289.800781 40.738281 C 289.886719 41.332031 289.554688 41.890625 288.992188 42.101562 L 284.96875 43.617188 C 284.925781 44.484375 284.820312 45.34375 284.664062 46.175781 L 288.195312 48.597656 C 288.6875 48.9375 288.875 49.5625 288.652344 50.117188 L 287.242188 53.589844 C 287.019531 54.140625 286.453125 54.464844 285.863281 54.363281 L 281.613281 53.675781 C 281.140625 54.394531 280.617188 55.082031 280.058594 55.738281 L 281.898438 59.597656 C 282.15625 60.136719 282.003906 60.769531 281.535156 61.136719 L 278.566406 63.445312 C 278.097656 63.808594 277.445312 63.800781 276.980469 63.429688 L 273.652344 60.726562 C 272.890625 61.109375 272.089844 61.449219 271.265625 61.734375 L 270.914062 65.992188 C 270.867188 66.585938 270.417969 67.058594 269.824219 67.140625 L 266.097656 67.667969 C 266.035156 67.675781 265.976562 67.679688 265.914062 67.679688 " fill-opacity="1" fill-rule="nonzero"/><path fill="#ffffff" d="M 142.894531 16.878906 C 154.511719 24.878906 155.835938 43.421875 146.574219 59.84375 C 146.566406 59.851562 146.5625 59.859375 146.558594 59.867188 C 145.875 61.347656 153.183594 71.085938 153.183594 71.085938 C 153.183594 71.085938 141.707031 67.074219 140.472656 68.492188 C 128.375 82.445312 110.894531 87.484375 99.457031 79.609375 C 86.855469 70.929688 86.367188 49.847656 98.359375 32.527344 C 110.355469 15.203125 130.292969 8.199219 142.894531 16.878906 " fill-opacity="1" fill-rule="nonzero"/><path fill="#000000" d="M 107.296875 85.355469 C 102.519531 85.355469 98.097656 84.0625 94.414062 81.523438 C 85.421875 75.328125 82.128906 62.933594 85.824219 49.179688 C 85.914062 48.839844 86.261719 48.640625 86.601562 48.730469 C 86.9375 48.824219 87.140625 49.171875 87.050781 49.507812 C 83.496094 62.730469 86.59375 74.597656 95.132812 80.480469 C 100.472656 84.15625 107.480469 85.058594 114.863281 83.019531 C 122.238281 80.980469 129.5 76.171875 135.3125 69.472656 C 136.453125 68.152344 142.359375 69.769531 146.800781 71.230469 C 146.128906 70.296875 145.25 69.050781 144.402344 67.777344 C 140.722656 62.242188 141.097656 61.429688 141.296875 60.992188 L 141.335938 60.921875 C 150.539062 44.613281 149.039062 26.5 137.851562 18.792969 C 132.253906 14.9375 124.898438 14.136719 117.140625 16.542969 C 109.359375 18.953125 101.878906 24.347656 96.074219 31.734375 C 95.859375 32.011719 95.460938 32.058594 95.1875 31.84375 C 94.910156 31.625 94.863281 31.230469 95.078125 30.953125 C 101.039062 23.367188 108.742188 17.816406 116.765625 15.328125 C 124.902344 12.808594 132.644531 13.667969 138.570312 17.75 C 150.292969 25.824219 151.960938 44.632812 142.464844 61.507812 C 142.371094 62.542969 145.769531 67.785156 149.007812 72.097656 L 150.257812 73.761719 L 148.289062 73.074219 C 143.136719 71.273438 137.070312 69.734375 136.253906 70.320312 C 130.296875 77.1875 122.816406 82.140625 115.203125 84.242188 C 112.503906 84.988281 109.847656 85.355469 107.296875 85.355469 " fill-opacity="1" fill-rule="nonzero"/><path fill="#000000" d="M 108.234375 58.710938 L 104.976562 61.390625 C 104.523438 61.761719 103.847656 61.707031 103.453125 61.269531 L 84.097656 39.730469 C 83.679688 39.261719 83.730469 38.550781 84.210938 38.15625 L 89.15625 34.097656 C 89.632812 33.703125 90.351562 33.785156 90.734375 34.285156 L 108.402344 57.207031 C 108.761719 57.675781 108.6875 58.339844 108.234375 58.710938 " fill-opacity="1" fill-rule="nonzero"/><path fill="#000000" d="M 108.378906 68.363281 C 107.71875 66.476562 108.648438 64.507812 110.449219 63.976562 C 112.25 63.445312 114.25 64.542969 114.910156 66.433594 C 115.570312 68.324219 114.644531 70.285156 112.839844 70.820312 C 111.035156 71.355469 109.039062 70.253906 108.378906 68.363281 " fill-opacity="1" fill-rule="nonzero"/><path fill="#000000" d="M 123.808594 60.1875 C 122.988281 58.101562 123.824219 56.101562 125.800781 55.347656 C 127.777344 54.589844 129.710938 55.539062 130.53125 57.621094 C 131.308594 59.59375 130.609375 61.613281 128.519531 62.410156 C 126.542969 63.164062 124.589844 62.160156 123.808594 60.1875 Z M 121.941406 51.828125 L 121.253906 50.402344 C 119.714844 47.492188 119.421875 43.78125 120.910156 39.320312 C 122.277344 35.367188 122.820312 32.628906 121.820312 30.09375 C 120.6875 27.21875 118.121094 26.488281 114.539062 27.789062 C 112.507812 28.5625 110.757812 30.550781 109.769531 32.164062 L 106.777344 28.1875 C 108.105469 26.125 110.96875 23.996094 113.960938 22.851562 C 120.457031 20.375 124.972656 23.253906 126.660156 27.535156 C 128.171875 31.367188 127.113281 34.945312 125.667969 39.191406 C 124.339844 43.070312 124.414062 45.894531 125.714844 48.699219 L 126.347656 50.144531 L 121.941406 51.828125 " fill-opacity="1" fill-rule="nonzero"/><path fill="#ffffff" d="M 311.429688 298.597656 C 309.753906 301.847656 306.898438 303.71875 305.039062 302.777344 C 303.1875 301.832031 303.039062 298.433594 304.710938 295.183594 C 306.386719 291.933594 309.246094 290.0625 311.101562 291.003906 C 312.957031 291.945312 313.105469 295.347656 311.429688 298.597656 Z M 326.367188 284.949219 C 322.492188 285.101562 316.171875 286.457031 315.28125 285.433594 C 314.390625 284.410156 319.769531 278.296875 320.421875 273.761719 C 321.070312 269.226562 319.644531 260.8125 306.234375 262.300781 C 295.222656 263.527344 271.949219 275.707031 271.207031 301.089844 C 269.6875 353.117188 328.203125 332.585938 332.199219 302.097656 C 334.003906 288.347656 330.242188 284.800781 326.367188 284.949219 " fill-opacity="1" fill-rule="nonzero"/><path fill="#000000" d="M 311.429688 298.59375 L 311.4375 298.59375 Z M 310.03125 291.390625 C 308.523438 291.390625 306.527344 293.042969 305.273438 295.472656 C 304.265625 297.441406 303.921875 299.546875 304.382812 300.96875 C 304.574219 301.570312 304.894531 301.988281 305.328125 302.210938 C 306.84375 302.980469 309.382812 301.191406 310.867188 298.304688 C 311.878906 296.339844 312.222656 294.234375 311.761719 292.808594 C 311.570312 292.207031 311.246094 291.789062 310.8125 291.570312 C 310.574219 291.449219 310.3125 291.390625 310.03125 291.390625 Z M 306.101562 303.652344 C 305.625 303.652344 305.171875 303.550781 304.753906 303.339844 C 304.019531 302.96875 303.472656 302.28125 303.171875 301.359375 C 302.605469 299.601562 302.972656 297.183594 304.148438 294.894531 C 306.011719 291.277344 309.1875 289.320312 311.386719 290.4375 C 312.125 290.8125 312.667969 291.496094 312.96875 292.417969 C 313.535156 294.179688 313.171875 296.597656 311.992188 298.886719 C 310.488281 301.8125 308.113281 303.652344 306.101562 303.652344 Z M 294.546875 333.589844 C 293.71875 333.589844 292.90625 333.554688 292.105469 333.484375 C 277.859375 332.203125 270.011719 320.390625 270.574219 301.070312 C 271.3125 275.941406 294.117188 263.011719 306.167969 261.671875 C 311.800781 261.046875 315.953125 262.066406 318.507812 264.703125 C 321.539062 267.832031 321.292969 272.144531 321.050781 273.851562 C 320.679688 276.417969 318.929688 279.371094 317.519531 281.746094 C 316.777344 282.996094 315.863281 284.535156 315.816406 285.054688 C 316.472656 285.390625 319.613281 285.011719 321.714844 284.761719 C 322.800781 284.628906 323.929688 284.496094 324.960938 284.40625 C 325.304688 284.375 325.617188 284.636719 325.648438 284.984375 C 325.675781 285.332031 325.417969 285.640625 325.066406 285.671875 C 324.058594 285.757812 322.945312 285.890625 321.867188 286.019531 C 317.867188 286.5 315.570312 286.730469 314.804688 285.851562 C 314.09375 285.035156 314.921875 283.632812 316.425781 281.097656 C 317.78125 278.820312 319.460938 275.988281 319.792969 273.671875 C 320.011719 272.148438 320.238281 268.308594 317.597656 265.585938 C 315.328125 263.242188 311.53125 262.351562 306.304688 262.929688 C 294.636719 264.226562 272.554688 276.753906 271.84375 301.109375 C 271.300781 319.667969 278.726562 331.007812 292.21875 332.21875 C 300.042969 332.925781 309.300781 329.988281 316.984375 324.371094 C 324.996094 318.511719 330.289062 310.542969 331.503906 302.503906 C 331.558594 302.160156 331.882812 301.917969 332.226562 301.972656 C 332.570312 302.023438 332.808594 302.347656 332.753906 302.695312 C 331.492188 311.0625 326.015625 319.339844 317.734375 325.394531 C 310.589844 330.617188 302.097656 333.589844 294.546875 333.589844 " fill-opacity="1" fill-rule="nonzero"/><path fill="#000000" d="M 314.921875 275.269531 C 314.921875 277.820312 312.84375 279.890625 310.273438 279.890625 C 307.707031 279.890625 305.625 277.820312 305.625 275.269531 C 305.625 272.71875 307.707031 270.652344 310.273438 270.652344 C 312.84375 270.652344 314.921875 272.71875 314.921875 275.269531 " fill-opacity="1" fill-rule="nonzero"/><path fill="#ed1b2f" d="M 300.367188 276.761719 C 300.367188 279.3125 298.285156 281.378906 295.714844 281.378906 C 293.148438 281.378906 291.066406 279.3125 291.066406 276.761719 C 291.066406 274.210938 293.148438 272.140625 295.714844 272.140625 C 298.285156 272.140625 300.367188 274.210938 300.367188 276.761719 " fill-opacity="1" fill-rule="nonzero"/><path fill="#feed01" d="M 288.949219 287.207031 C 288.949219 289.761719 286.867188 291.828125 284.296875 291.828125 C 281.730469 291.828125 279.648438 289.761719 279.648438 287.207031 C 279.648438 284.65625 281.730469 282.589844 284.296875 282.589844 C 286.867188 282.589844 288.949219 284.65625 288.949219 287.207031 " fill-opacity="1" fill-rule="nonzero"/><path fill="#feed01" d="M 280.660156 297.285156 C 278.449219 297.285156 276.644531 299.074219 276.644531 301.269531 C 276.644531 303.46875 278.449219 305.253906 280.660156 305.253906 C 282.875 305.253906 284.675781 303.46875 284.675781 301.269531 C 284.675781 299.074219 282.875 297.285156 280.660156 297.285156 Z M 280.660156 306.523438 C 277.746094 306.523438 275.375 304.164062 275.375 301.269531 C 275.375 298.375 277.746094 296.019531 280.660156 296.019531 C 283.574219 296.019531 285.945312 298.375 285.945312 301.269531 C 285.945312 304.164062 283.574219 306.523438 280.660156 306.523438 " fill-opacity="1" fill-rule="nonzero"/><path fill="#ffffff" d="M 328.078125 289.988281 L 332.65625 295.726562 L 296.070312 321.835938 L 289.167969 324.445312 C 289.167969 324.445312 293.257812 318.632812 293.527344 318.40625 L 328.078125 289.988281 " fill-opacity="1" fill-rule="nonzero"/><path fill="#000000" d="M 293.953125 318.875 C 293.699219 319.167969 292.226562 321.222656 290.878906 323.117188 L 295.769531 321.273438 L 331.742188 295.601562 L 327.984375 290.882812 Z M 289.164062 325.078125 C 288.972656 325.078125 288.785156 324.992188 288.664062 324.832031 C 288.492188 324.613281 288.488281 324.308594 288.648438 324.078125 C 291.394531 320.179688 292.898438 318.109375 293.113281 317.921875 L 327.671875 289.496094 C 327.804688 289.390625 327.976562 289.339844 328.144531 289.355469 C 328.3125 289.375 328.46875 289.457031 328.574219 289.589844 L 333.148438 295.332031 C 333.257812 295.46875 333.308594 295.644531 333.285156 295.816406 C 333.257812 295.988281 333.167969 296.144531 333.023438 296.246094 L 296.4375 322.351562 C 296.394531 322.382812 296.34375 322.410156 296.292969 322.429688 L 289.390625 325.039062 C 289.316406 325.066406 289.242188 325.078125 289.164062 325.078125 " fill-opacity="1" fill-rule="nonzero"/><path fill="#ed1b2f" d="M 328.078125 289.988281 L 332.65625 295.726562 L 324.554688 301.507812 L 320.359375 296.335938 L 328.078125 289.988281 " fill-opacity="1" fill-rule="nonzero"/><path fill="#000000" d="M 321.246094 296.425781 L 324.671875 300.648438 L 331.742188 295.601562 L 327.984375 290.882812 Z M 324.554688 302.144531 C 324.367188 302.144531 324.1875 302.0625 324.0625 301.910156 L 319.867188 296.738281 C 319.644531 296.464844 319.683594 296.066406 319.957031 295.847656 L 327.671875 289.496094 C 327.804688 289.390625 327.976562 289.339844 328.144531 289.355469 C 328.3125 289.375 328.46875 289.457031 328.574219 289.589844 L 333.148438 295.332031 C 333.257812 295.46875 333.308594 295.644531 333.285156 295.816406 C 333.257812 295.988281 333.167969 296.144531 333.023438 296.246094 L 324.921875 302.027344 C 324.8125 302.105469 324.683594 302.144531 324.554688 302.144531 " fill-opacity="1" fill-rule="nonzero"/><path fill="#000000" d="M 333.277344 281.03125 C 329.175781 284.34375 327.742188 287.394531 328.007812 290.007812 L 332.65625 295.773438 C 332.65625 295.773438 332.664062 295.777344 332.671875 295.78125 C 335.195312 296.617188 338.527344 295.867188 342.671875 292.523438 C 348.824219 287.5625 352.769531 274.84375 352.769531 274.84375 C 352.769531 274.84375 339.433594 276.070312 333.277344 281.03125 " fill-opacity="1" fill-rule="nonzero"/><path fill="#000000" d="M 333.277344 281.03125 L 333.285156 281.03125 Z M 333.027344 295.226562 C 335.574219 295.96875 338.757812 294.863281 342.273438 292.03125 C 347.257812 288.011719 350.820312 278.582031 351.855469 275.585938 C 348.695312 275.980469 338.660156 277.507812 333.675781 281.527344 C 330.191406 284.335938 328.449219 287.179688 328.621094 289.761719 Z M 334.691406 296.734375 C 333.921875 296.734375 333.179688 296.617188 332.46875 296.382812 C 332.355469 296.34375 332.238281 296.269531 332.160156 296.171875 L 327.511719 290.40625 C 327.441406 290.316406 327.390625 290.203125 327.378906 290.085938 C 327.054688 286.949219 328.90625 283.742188 332.878906 280.539062 C 339.113281 275.511719 352.15625 274.265625 352.710938 274.214844 C 352.921875 274.199219 353.128906 274.28125 353.261719 274.445312 C 353.394531 274.609375 353.4375 274.832031 353.375 275.03125 C 353.210938 275.558594 349.300781 287.988281 343.070312 293.019531 C 340 295.488281 337.195312 296.734375 334.691406 296.734375 " fill-opacity="1" fill-rule="nonzero"/><path fill="#000000" d="M 20.074219 346.417969 L 89.363281 346.417969 L 89.363281 342.535156 L 86.691406 342.535156 L 86.699219 326.363281 L 89.363281 326.34375 L 89.535156 322.042969 L 20.25 322.042969 C 17.230469 322.042969 12.640625 326.882812 12.640625 330.164062 L 12.640625 339.027344 C 12.640625 342.308594 17.058594 346.417969 20.074219 346.417969 " fill-opacity="1" fill-rule="nonzero"/><path fill="#ffffff" d="M 18.851562 342.53125 L 86.941406 342.53125 L 86.941406 326.359375 L 18.851562 326.359375 C 17.621094 326.359375 16.628906 327.355469 16.628906 328.582031 L 16.628906 340.308594 C 16.628906 341.539062 17.621094 342.53125 18.851562 342.53125 " fill-opacity="1" fill-rule="nonzero"/><path fill="#000000" d="M 21.53125 326.992188 C 19.175781 326.992188 17.261719 328.910156 17.261719 331.265625 L 17.261719 337.628906 C 17.261719 339.984375 19.175781 341.898438 21.53125 341.898438 L 86.304688 341.898438 L 86.304688 326.992188 Z M 86.941406 343.167969 L 21.53125 343.167969 C 18.476562 343.167969 15.992188 340.683594 15.992188 337.628906 L 15.992188 331.265625 C 15.992188 328.210938 18.476562 325.726562 21.53125 325.726562 L 86.941406 325.726562 C 87.289062 325.726562 87.574219 326.007812 87.574219 326.359375 L 87.574219 342.53125 C 87.574219 342.882812 87.289062 343.167969 86.941406 343.167969 " fill-opacity="1" fill-rule="nonzero"/><path fill="#ed1b2f" d="M 83.519531 332.03125 L 23.882812 332.03125 C 23.53125 332.03125 23.246094 331.75 23.246094 331.398438 C 23.246094 331.046875 23.53125 330.761719 23.882812 330.761719 L 83.519531 330.761719 C 83.867188 330.761719 84.152344 331.046875 84.152344 331.398438 C 84.152344 331.75 83.867188 332.03125 83.519531 332.03125 " fill-opacity="1" fill-rule="nonzero"/><path fill="#ed1b2f" d="M 65.316406 337.070312 L 23.882812 337.070312 C 23.53125 337.070312 23.246094 336.785156 23.246094 336.4375 C 23.246094 336.085938 23.53125 335.800781 23.882812 335.800781 L 65.316406 335.800781 C 65.664062 335.800781 65.949219 336.085938 65.949219 336.4375 C 65.949219 336.785156 65.664062 337.070312 65.316406 337.070312 " fill-opacity="1" fill-rule="nonzero"/><path fill="#ffffff" d="M 43.449219 290.3125 L 34.734375 292.644531 L 22.996094 249.339844 L 31.707031 247.007812 L 43.449219 290.3125 " fill-opacity="1" fill-rule="nonzero"/><path fill="#000000" d="M 23.773438 249.789062 L 35.179688 291.867188 L 42.667969 289.863281 L 31.261719 247.785156 Z M 34.289062 293.417969 L 22.214844 248.894531 L 32.152344 246.230469 L 44.226562 290.761719 L 34.289062 293.417969 " fill-opacity="1" fill-rule="nonzero"/><path fill="#ed1b2f" d="M 26.855469 254.179688 C 26.574219 254.179688 26.320312 253.988281 26.242188 253.703125 C 26.15625 253.363281 26.359375 253.019531 26.695312 252.929688 L 30.542969 251.925781 C 30.882812 251.839844 31.230469 252.039062 31.316406 252.378906 C 31.40625 252.71875 31.203125 253.0625 30.867188 253.152344 L 27.015625 254.160156 C 26.964844 254.171875 26.910156 254.179688 26.855469 254.179688 " fill-opacity="1" fill-rule="nonzero"/><path fill="#ffffff" d="M 29.914062 298.847656 C 24.417969 298.777344 19.367188 294.058594 19.367188 288.246094 C 19.367188 282.429688 24.417969 277.714844 29.914062 277.644531 L 29.914062 272.035156 C 21.882812 272.105469 13.722656 279.335938 13.722656 288.246094 C 13.722656 297.15625 21.882812 304.382812 29.914062 304.453125 L 29.914062 298.847656 " fill-opacity="1" fill-rule="nonzero"/><path fill="#000000" d="M 29.328125 305.082031 C 29.320312 305.082031 29.3125 305.082031 29.304688 305.082031 C 21.535156 304.800781 12.875 297.816406 12.875 288.246094 C 12.875 278.691406 21.757812 271.472656 29.695312 271.398438 C 29.859375 271.402344 30.027344 271.464844 30.148438 271.585938 C 30.269531 271.703125 30.335938 271.867188 30.335938 272.035156 L 30.335938 277.644531 C 30.335938 277.988281 30.058594 278.273438 29.710938 278.277344 C 24.425781 278.34375 19.789062 283.003906 19.789062 288.246094 C 19.789062 293.457031 24.234375 298.019531 29.5 298.207031 C 29.847656 298.222656 30.121094 298.515625 30.109375 298.867188 C 30.097656 299.214844 29.808594 299.496094 29.453125 299.476562 C 23.527344 299.261719 18.519531 294.121094 18.519531 288.246094 C 18.519531 282.441406 23.289062 277.445312 29.066406 277.035156 L 29.066406 272.691406 C 21.890625 273.121094 14.144531 279.664062 14.144531 288.246094 C 14.144531 297.09375 22.160156 303.554688 29.351562 303.8125 C 29.703125 303.828125 29.976562 304.121094 29.960938 304.46875 C 29.949219 304.8125 29.667969 305.082031 29.328125 305.082031 " fill-opacity="1" fill-rule="nonzero"/><path fill="#ffffff" d="M 43.1875 280.503906 L 29.886719 284.0625 L 24.515625 264.261719 L 37.816406 260.703125 L 43.1875 280.503906 " fill-opacity="1" fill-rule="nonzero"/><path fill="#000000" d="M 25.292969 264.710938 L 30.332031 283.285156 L 42.410156 280.054688 L 37.371094 261.480469 Z M 29.441406 284.839844 L 23.738281 263.816406 L 38.265625 259.925781 L 43.96875 280.949219 L 29.441406 284.839844 " fill-opacity="1" fill-rule="nonzero"/><path fill="#ffffff" d="M 39.59375 316.054688 L 29.324219 316.054688 L 29.324219 304.523438 L 39.59375 304.523438 L 39.59375 316.054688 " fill-opacity="1" fill-rule="nonzero"/><path fill="#000000" d="M 39.59375 316.691406 L 36.082031 316.691406 C 35.734375 316.691406 35.449219 316.402344 35.449219 316.054688 C 35.449219 315.703125 35.734375 315.421875 36.082031 315.421875 L 38.960938 315.421875 L 38.960938 305.160156 L 29.960938 305.160156 L 29.960938 315.421875 L 30.398438 315.421875 C 30.75 315.421875 31.03125 315.703125 31.03125 316.054688 C 31.03125 316.402344 30.75 316.691406 30.398438 316.691406 L 29.324219 316.691406 C 28.976562 316.691406 28.691406 316.402344 28.691406 316.054688 L 28.691406 304.523438 C 28.691406 304.175781 28.976562 303.890625 29.324219 303.890625 L 39.59375 303.890625 C 39.941406 303.890625 40.226562 304.175781 40.226562 304.523438 L 40.226562 316.054688 C 40.226562 316.402344 39.941406 316.691406 39.59375 316.691406 " fill-opacity="1" fill-rule="nonzero"/><path fill="#ffffff" d="M 52.601562 304.324219 L 29.324219 304.324219 L 29.324219 298.84375 L 52.601562 298.84375 L 52.601562 304.324219 " fill-opacity="1" fill-rule="nonzero"/><path fill="#000000" d="M 52.601562 305.082031 L 29.324219 305.082031 C 28.976562 305.082031 28.691406 304.796875 28.691406 304.449219 C 28.691406 304.097656 28.976562 303.8125 29.324219 303.8125 L 51.964844 303.8125 L 51.964844 299.476562 L 29.960938 299.476562 L 29.960938 301.367188 C 29.960938 301.714844 29.675781 302 29.324219 302 C 28.976562 302 28.691406 301.714844 28.691406 301.367188 L 28.691406 298.84375 C 28.691406 298.492188 28.976562 298.207031 29.324219 298.207031 L 52.601562 298.207031 C 52.949219 298.207031 53.234375 298.492188 53.234375 298.84375 L 53.234375 304.449219 C 53.234375 304.796875 52.949219 305.082031 52.601562 305.082031 " fill-opacity="1" fill-rule="nonzero"/><path fill="#ffffff" d="M 48.464844 321.539062 L 21.226562 321.539062 L 21.226562 316.058594 L 48.464844 316.058594 L 48.464844 321.539062 " fill-opacity="1" fill-rule="nonzero"/><path fill="#000000" d="M 48.464844 322.175781 L 21.226562 322.175781 C 20.878906 322.175781 20.59375 321.890625 20.59375 321.539062 L 20.59375 316.058594 C 20.59375 315.707031 20.878906 315.425781 21.226562 315.425781 L 31.402344 315.425781 C 31.753906 315.425781 32.035156 315.707031 32.035156 316.058594 C 32.035156 316.410156 31.753906 316.695312 31.402344 316.695312 L 21.859375 316.695312 L 21.859375 320.90625 L 47.832031 320.90625 L 47.832031 316.695312 L 35.433594 316.695312 C 35.082031 316.695312 34.800781 316.410156 34.800781 316.058594 C 34.800781 315.707031 35.082031 315.425781 35.433594 315.425781 L 48.464844 315.425781 C 48.816406 315.425781 49.097656 315.707031 49.097656 316.058594 L 49.097656 321.539062 C 49.097656 321.890625 48.816406 322.175781 48.464844 322.175781 " fill-opacity="1" fill-rule="nonzero"/><path fill="#ffffff" d="M 77.316406 315.960938 L 69.859375 305.164062 L 69.859375 289.734375 L 60.136719 289.734375 L 60.136719 305.164062 L 52.699219 315.960938 C 51.070312 318.359375 52.800781 321.648438 55.714844 321.648438 L 74.300781 321.648438 C 77.214844 321.648438 78.949219 318.359375 77.316406 315.960938 " fill-opacity="1" fill-rule="nonzero"/><path fill="#000000" d="M 60.769531 290.371094 L 60.769531 305.363281 L 53.21875 316.316406 C 52.589844 317.246094 52.53125 318.402344 53.0625 319.40625 C 53.597656 320.410156 54.585938 321.011719 55.714844 321.011719 L 74.300781 321.011719 C 75.429688 321.011719 76.421875 320.410156 76.953125 319.40625 C 77.484375 318.402344 77.425781 317.246094 76.796875 316.316406 L 69.226562 305.363281 L 69.226562 290.371094 Z M 74.300781 322.28125 L 55.714844 322.28125 C 54.109375 322.28125 52.699219 321.429688 51.941406 320.003906 C 51.1875 318.574219 51.273438 316.929688 52.171875 315.601562 L 59.503906 304.96875 L 59.503906 289.101562 L 70.492188 289.101562 L 70.492188 304.96875 L 77.84375 315.601562 C 78.742188 316.929688 78.832031 318.574219 78.074219 320.003906 C 77.316406 321.429688 75.90625 322.28125 74.300781 322.28125 " fill-opacity="1" fill-rule="nonzero"/><path fill="#ed1b2f" d="M 65.632812 303.175781 C 65.28125 303.175781 64.996094 302.894531 64.996094 302.542969 L 64.996094 294.984375 C 64.996094 294.636719 65.28125 294.351562 65.632812 294.351562 C 65.980469 294.351562 66.265625 294.636719 66.265625 294.984375 L 66.265625 302.542969 C 66.265625 302.894531 65.980469 303.175781 65.632812 303.175781 " fill-opacity="1" fill-rule="nonzero"/><path fill="#000000" d="M 36.214844 52.234375 C 36.210938 52.234375 36.203125 52.234375 36.195312 52.234375 C 35.847656 52.222656 35.570312 51.929688 35.582031 51.582031 L 35.671875 48.714844 C 35.683594 48.363281 35.976562 48.074219 36.324219 48.101562 C 36.675781 48.113281 36.949219 48.40625 36.941406 48.753906 L 36.847656 51.621094 C 36.839844 51.964844 36.558594 52.234375 36.214844 52.234375 " fill-opacity="1" fill-rule="nonzero"/><path fill="#000000" d="M 36.53125 42.207031 C 36.527344 42.207031 36.519531 42.207031 36.511719 42.207031 C 36.160156 42.195312 35.886719 41.902344 35.898438 41.554688 L 35.988281 38.6875 C 36 38.335938 36.292969 38.042969 36.640625 38.070312 C 36.992188 38.082031 37.265625 38.375 37.257812 38.726562 L 37.164062 41.589844 C 37.15625 41.9375 36.875 42.207031 36.53125 42.207031 " fill-opacity="1" fill-rule="nonzero"/><path fill="#000000" d="M 42.8125 46.082031 C 42.800781 46.082031 42.792969 46.082031 42.78125 46.078125 L 39.941406 45.949219 C 39.59375 45.933594 39.320312 45.636719 39.335938 45.285156 C 39.351562 44.9375 39.648438 44.660156 40 44.679688 L 42.839844 44.8125 C 43.191406 44.828125 43.460938 45.125 43.445312 45.472656 C 43.429688 45.816406 43.148438 46.082031 42.8125 46.082031 " fill-opacity="1" fill-rule="nonzero"/><path fill="#000000" d="M 32.867188 45.625 C 32.859375 45.625 32.847656 45.625 32.839844 45.625 L 29.996094 45.496094 C 29.648438 45.476562 29.378906 45.179688 29.394531 44.832031 C 29.410156 44.480469 29.699219 44.203125 30.054688 44.226562 L 32.898438 44.355469 C 33.246094 44.375 33.515625 44.671875 33.5 45.019531 C 33.484375 45.359375 33.207031 45.625 32.867188 45.625 " fill-opacity="1" fill-rule="nonzero"/><path fill="#000000" d="M 59.671875 256.050781 C 59.503906 256.050781 59.335938 255.988281 59.210938 255.855469 L 57.234375 253.765625 C 56.996094 253.511719 57.007812 253.109375 57.261719 252.867188 C 57.515625 252.628906 57.917969 252.636719 58.15625 252.894531 L 60.132812 254.984375 C 60.375 255.238281 60.363281 255.636719 60.109375 255.878906 C 59.984375 255.996094 59.828125 256.050781 59.671875 256.050781 " fill-opacity="1" fill-rule="nonzero"/><path fill="#000000" d="M 66.589844 263.367188 C 66.421875 263.367188 66.253906 263.300781 66.128906 263.167969 L 64.152344 261.078125 C 63.910156 260.824219 63.921875 260.425781 64.175781 260.183594 C 64.433594 259.941406 64.832031 259.953125 65.074219 260.207031 L 67.050781 262.296875 C 67.289062 262.550781 67.277344 262.953125 67.023438 263.195312 C 66.902344 263.3125 66.746094 263.367188 66.589844 263.367188 " fill-opacity="1" fill-rule="nonzero"/><path fill="#000000" d="M 57.414062 262.945312 C 57.242188 262.945312 57.070312 262.878906 56.945312 262.738281 C 56.710938 262.480469 56.730469 262.078125 56.988281 261.84375 L 59.089844 259.941406 C 59.351562 259.703125 59.75 259.722656 59.984375 259.984375 C 60.222656 260.246094 60.203125 260.644531 59.941406 260.878906 L 57.839844 262.785156 C 57.71875 262.894531 57.566406 262.945312 57.414062 262.945312 " fill-opacity="1" fill-rule="nonzero"/><path fill="#000000" d="M 64.769531 256.285156 C 64.597656 256.285156 64.425781 256.214844 64.300781 256.078125 C 64.066406 255.820312 64.085938 255.417969 64.34375 255.183594 L 66.445312 253.277344 C 66.703125 253.042969 67.105469 253.0625 67.339844 253.324219 C 67.578125 253.582031 67.554688 253.984375 67.296875 254.21875 L 65.195312 256.121094 C 65.074219 256.234375 64.921875 256.285156 64.769531 256.285156 " fill-opacity="1" fill-rule="nonzero"/><path fill="#000000" d="M 314.160156 128.582031 C 315.632812 128.65625 316.890625 127.535156 316.96875 126.078125 C 317.007812 125.371094 316.765625 124.695312 316.289062 124.167969 C 315.8125 123.640625 315.15625 123.328125 314.445312 123.289062 C 312.972656 123.21875 311.710938 124.335938 311.632812 125.796875 C 311.597656 126.5 311.839844 127.179688 312.3125 127.707031 C 312.789062 128.234375 313.445312 128.542969 314.160156 128.582031 Z M 314.304688 129.855469 C 314.234375 129.855469 314.164062 129.851562 314.09375 129.847656 C 313.042969 129.792969 312.078125 129.335938 311.375 128.558594 C 310.667969 127.777344 310.3125 126.773438 310.367188 125.726562 C 310.484375 123.570312 312.34375 121.90625 314.511719 122.027344 C 315.5625 122.082031 316.527344 122.539062 317.230469 123.316406 C 317.9375 124.097656 318.292969 125.101562 318.238281 126.148438 C 318.121094 128.230469 316.382812 129.855469 314.304688 129.855469 " fill-opacity="1" fill-rule="nonzero"/><path fill="#000000" d="M 77.605469 228.347656 C 76.195312 228.347656 75.015625 229.445312 74.941406 230.855469 C 74.902344 231.5625 75.140625 232.238281 75.617188 232.765625 C 76.09375 233.292969 76.75 233.605469 77.464844 233.644531 C 78.9375 233.714844 80.195312 232.597656 80.273438 231.140625 C 80.3125 230.433594 80.070312 229.757812 79.59375 229.230469 C 79.117188 228.703125 78.460938 228.390625 77.75 228.351562 C 77.699219 228.351562 77.652344 228.347656 77.605469 228.347656 Z M 77.609375 234.914062 C 77.539062 234.914062 77.46875 234.914062 77.394531 234.910156 C 76.347656 234.855469 75.382812 234.394531 74.675781 233.617188 C 73.972656 232.835938 73.617188 231.832031 73.671875 230.789062 C 73.789062 228.632812 75.644531 226.972656 77.816406 227.085938 C 78.867188 227.144531 79.832031 227.601562 80.535156 228.378906 C 81.238281 229.15625 81.597656 230.160156 81.539062 231.207031 C 81.429688 233.292969 79.6875 234.914062 77.609375 234.914062 " fill-opacity="1" fill-rule="nonzero"/><path fill="#ed1b2f" d="M 322.042969 344.296875 C 320.5 344.21875 319.316406 342.90625 319.398438 341.375 C 319.480469 339.84375 320.796875 338.667969 322.339844 338.75 C 323.882812 338.832031 325.066406 340.140625 324.984375 341.671875 C 324.898438 343.203125 323.582031 344.378906 322.042969 344.296875 " fill-opacity="1" fill-rule="nonzero"/></svg>